<svg xmlns="http://www.w3.org/2000/svg" xmlns:xlink="http://www.w3.org/1999/xlink" version="1.1" x="0px" y="0px" viewBox="0 0 100 125" style="enable-background:new 0 0 100 100;" xml:space="preserve"><style type="text/css">
	.st0{display:none;}
	.st1{display:inline;}
	.st2{fill:#FFFFFF;stroke:#000000;stroke-width:2;stroke-linecap:round;stroke-linejoin:round;stroke-miterlimit:10;}
	.st3{fill:none;stroke:#000000;stroke-width:2;stroke-linecap:round;stroke-linejoin:round;stroke-miterlimit:10;}
	.st4{stroke:#000000;stroke-linecap:round;stroke-linejoin:round;stroke-miterlimit:10;}
	.st5{stroke:#000000;stroke-width:2;stroke-linecap:round;stroke-linejoin:round;stroke-miterlimit:10;}
	.st6{fill:none;stroke:#FFFFFF;stroke-width:0.75;stroke-linecap:round;stroke-linejoin:round;stroke-miterlimit:10;}
</style><g><g><path d="M41.5,56.8l0.6,2.8c0.3,1.3,1.1,2.4,2.3,3c1.1,0.6,2.4,0.8,3.6,0.4l1.1-0.2v0.5c0,0.5-0.4,1.2-0.7,1.7    c-0.2,0.3-1.5,0.9-2,1.1L42,67.9c-0.5,0.2-0.7,0.8-0.5,1.3c0.2,0.4,0.5,0.6,0.9,0.6c0.1,0,0.3,0,0.4-0.1L47,68    c1.3-0.5,2.4-1,3-1.9c0,0,0,0,0,0c0,0,0,0,0,0c0.5,0.8,1.7,1.4,3,1.9l4.2,1.8c0.1,0.1,0.3,0.1,0.4,0.1c0.4,0,0.8-0.2,0.9-0.6    c0.2-0.5,0-1.1-0.5-1.3l-4.2-1.8c-0.5-0.2-1.8-0.7-2-1.1c-0.3-0.5-0.7-1.2-0.7-1.7v-0.5l1.1,0.2c0.4,0.1,0.9,0.2,1.3,0.2    c0.8,0,1.6-0.2,2.3-0.6c1.1-0.6,2-1.8,2.3-3l0.6-2.8c0.3-1.3,0-2.7-0.8-3.8l-2.3-3.1c-0.9-1.2-2.3-1.9-3.8-1.9h-3.4    c-1.5,0-2.9,0.7-3.8,1.9L42.3,53C41.5,54.1,41.2,55.4,41.5,56.8z"/><path d="M63.3,38.5c-2.7,0-4.4,2.9-4.5,3c0,0.1,0,0.1-0.1,0.2c0,0,0,0.1,0,0.1c0,0.1,0,0.2,0,0.4c0,0,0,0,0,0    c0.8,4.9,2.9,17.6,3.1,18.9c-0.1,0.7-0.6,4.2-1,6.7l-4.4,4.2L50,72.4l-6.3-0.3l-4.4-4.2c-0.4-2.6-0.9-6.3-1-6.7    c0.2-1.2,2.3-14,3.1-19c0,0,0,0,0,0c0-0.1,0-0.2,0-0.4c0,0,0-0.1,0-0.1c0-0.1,0-0.1-0.1-0.2c-0.1-0.1-1.8-3-4.5-3    c-2.5,0-3.2,2.6-3.2,4c0,0.3,0.1,0.5,0.3,0.7c0.1,0.1,1.5,1.4,3.4,1.4c0,0,0.1,0,0.1,0c0.6,0,1.1-0.2,1.6-0.4    c-2.7,16.7-2.7,16.8-2.7,16.9c0,0.1,0,0.2,1.1,7.4c0,0.2,0.1,0.4,0.3,0.6l5,4.7c0.2,0.2,0.4,0.3,0.6,0.3l6.7,0.3c0,0,0,0,0,0    c0,0,0,0,0,0c0,0,0,0,0,0s0,0,0,0c0,0,0,0,0,0c0,0,0,0,0,0l6.7-0.3c0.2,0,0.5-0.1,0.6-0.3l5-4.7c0.2-0.2,0.3-0.4,0.3-0.6    c1.1-7.2,1.1-7.3,1.1-7.4c0-0.1,0-0.2-2.7-16.9c0.5,0.2,1,0.4,1.6,0.4c0,0,0.1,0,0.1,0c2,0,3.4-1.4,3.4-1.4    c0.2-0.2,0.3-0.4,0.3-0.7C66.4,41.1,65.8,38.5,63.3,38.5z"/><path d="M93.5,25.3l-3.1-8.9c-0.1-0.3-0.4-0.6-0.8-0.7L81,14.2c-0.2,0-0.5,0-0.6,0.1l-9.1,4.8l-1.6-1.6c-0.2-0.2-0.4-0.3-0.7-0.3    H50H31c-0.3,0-0.5,0.1-0.7,0.3l-1.6,1.6l-9.1-4.8c-0.2-0.1-0.4-0.1-0.6-0.1l-8.7,1.6c-0.4,0.1-0.6,0.3-0.8,0.7l-3.1,8.9    c-0.1,0.2-0.1,0.5,0,0.7l4.6,11.4l-1.3,1.4c-0.2,0.2-0.3,0.5-0.3,0.9L15,73.5c0,0.3,0.2,0.5,0.4,0.7l30.2,20.6    c0.2,0.1,0.4,0.2,0.6,0.2H50h3.8c0.2,0,0.4-0.1,0.6-0.2l30.2-20.6c0.2-0.2,0.4-0.4,0.4-0.7l5.5-33.9c0-0.3,0-0.6-0.3-0.9l-1.3-1.4    L93.5,26C93.6,25.8,93.6,25.6,93.5,25.3z M8.5,25.6l2.8-8l7.8-1.4l8.3,4.4L12.6,35.8L8.5,25.6z M83.1,72.8L53.5,93H50h-3.5    L16.9,72.8l-5.4-33l1.4-1.5c0,0,0,0,0,0l18.4-19.2H50h18.6L87,38.3c0,0,0,0,0,0l1.4,1.5L83.1,72.8z M87.4,35.8L72.7,20.6l8.3-4.4    l7.8,1.4l2.8,8L87.4,35.8z"/></g></g></svg>