<svg xmlns="http://www.w3.org/2000/svg" xmlns:xlink="http://www.w3.org/1999/xlink" version="1.2" baseProfile="tiny" x="0px" y="0px" viewBox="0 0 100 125" xml:space="preserve"><path d="M39.857,24.923c0.594,0.237,1.1,0.205,2.573-0.064c2.463-0.448,4.599-0.999,7.212-1.652c0,0,0.001,0,0.001,0  c2.964-0.741,3.876-0.3,4.832-0.887c0.844-0.518,1.557-1.733,1.298-2.608c-0.411-1.388-3.191-1.647-6.322-1.938  c-0.93-0.087-2.963-0.266-5.528,0.095c-3.389,0.478-4.48,1.392-4.829,1.716c-0.704,0.651-0.931,1.245-1.017,1.525  c-0.329,1.069,0.031,1.975,0.095,2.129C38.227,23.368,38.701,24.463,39.857,24.923z"/><path d="M23.273,80.711c-0.921,0.016-1.843,0.032-2.764,0.048c-0.319-0.62-1.252-2.627-0.762-5.194  c0.408-2.142,1.585-3.517,2.097-4.051c-0.748-0.016-1.495-0.033-2.243-0.049c-0.583,0.717-1.468,1.992-1.903,3.767  c-0.948,3.866,0.594,8.646,2.907,9.15c0.592,0.129,1.736,0.079,2.685-0.597c0.521-0.371,0.829-0.821,1.001-1.126  C23.951,82.009,23.612,81.36,23.273,80.711z"/><path d="M80.808,50.975c0.979-2.986,2.238-8.153,1.589-14.551c-0.325-3.198-0.946-9.763-5.528-15.631  c-1.772-2.269-3.577-3.721-6.345-5.949c-3.985-3.206-3.995-2.333-9.549-6.422c-3.074-2.263-4.752-3.236-6-3.38  c-1.308-0.151-2.444,0.125-4.295,0.575c-1.135,0.276-1.63,0.496-3.502,1.126c-2.419,0.813-3.347,1.035-4.477,1.405  c-4.106,1.344-7.214,3.446-8.113,4.056c-2.029,1.378-4.237,2.877-6.148,5.577c-2.328,3.29-3.09,6.772-3.32,9.284  c-0.894,0.38-2.436,1.17-3.87,2.723c-1.467,1.587-2.134,3.227-2.437,4.156c0.478,0.382,0.955,0.765,1.433,1.147  c-0.227,1.054-0.453,2.108-0.68,3.162c-0.448,3.151-0.584,5.835-0.61,7.856c-0.02,1.518,0.017,6.451,1.181,12.867  c0.506,2.786,1.156,5.113,1.631,6.761c0.131,1.88,0.386,3.937,0.752,6.112c-0.727,0.696-1.434,2.484-1.644,3.996  c-0.243,1.745,0.195,3.169,0.483,3.911c1.037,0.076,2.077,0.153,3.113,0.229c0.21,0.681,0.427,1.341,0.645,1.972  c-0.287,2.007-0.572,4.013-0.859,6.02c0.293,0.516,0.789,1.273,1.577,2.007c1.52,1.417,3.185,1.874,6.163,2.58  c3.426,0.813,5.139,1.219,6.45,1.433c2.781,0.455,6.389,1.029,11.179,1.003c1.596-0.009,5.021-0.093,9.029-1.29  c2.085-0.622,3.411-1.272,4.013-2.58c0.584-1.267,0.239-2.611,0-3.297c-0.573-0.573-1.147-1.147-1.72-1.72  c0.23-0.404,0.47-0.832,0.72-1.279c0.571,0.499,1.146,0.999,1.728,1.501c0.42,0.362,0.84,0.721,1.259,1.078  c-0.136,1.141-0.205,2.109-0.242,2.829c0.347,0.761,0.843,1.501,1.525,1.588c1.749,0.223,3.698-3.974,4.511-6.799  c0.722-2.506,1.312-6.577-0.063-7.244c-0.333-0.161-0.711-0.09-1.005,0.013c0.414-0.441,0.829-0.882,1.243-1.323  c1.398-3.283,2.804-6.578,4.202-9.861c0.805-0.106,1.614-0.218,2.418-0.324c1.103-1.737,2.332-3.991,3.37-6.738  c1.083-2.866,1.658-5.469,1.971-7.563C81.994,51.653,81.401,51.314,80.808,50.975z M78.298,31.619  c0.647,2.509,0.92,4.783,1.014,6.676c-0.563-0.24-1.127-0.479-1.69-0.718c-0.015-1.383-0.12-3.402-0.562-5.791  c-0.783-4.235-2.267-7.709-2.206-7.731c0.019-0.007,0.164,0.315,0.741,1.818c-0.394-1.134-0.788-2.267-1.182-3.401  C75.736,24.63,77.289,27.706,78.298,31.619z M53.711,5.987c0.485,0.102,0.919,0.546,0.914,1.055  c-0.006,0.656-0.739,1.192-1.407,1.055c-0.528-0.108-0.983-0.631-0.914-1.196C52.382,6.259,53.103,5.859,53.711,5.987z   M26.863,24.288c0.591-1.259,1.462-2.001,2.033-2.478c1.594-1.33,2.106-0.902,3.05-2.002c0.255-0.297,1.206-1.439,1.144-3.05  c-0.032-0.816-0.311-1.448-0.508-1.811c1.67-1.438,4.671-3.642,8.959-4.893c5.996-1.749,10.994-0.611,13.534,0  c4.893,1.178,8.524,3.39,10.802,5.083c-0.831,0.232-2.064,0.711-3.113,1.779c-1.753,1.784-2.032,4.232-2.224,5.909  c-0.292,2.553,0.25,3.361-0.445,5.274c-0.455,1.252-1.144,2.162-1.652,2.732c-0.848-0.778-3.622-3.121-7.815-3.368  c-3.775-0.222-6.538,1.383-7.625,2.033c-1.565,0.937-2.666,2.006-3.368,2.796c-0.471-0.89-2.038-3.58-5.401-5.147  c-3.666-1.708-7.02-0.942-7.943-0.699C26.335,25.925,26.463,25.141,26.863,24.288z M46.925,35.551  c0.379-0.188,0.756-0.327,1.119-0.427l-2.761,10.992c-0.249-0.19-0.505-0.415-0.749-0.68L46.925,35.551z M44.169,44.992  c-0.269-0.361-0.51-0.777-0.69-1.261c-0.169-0.454-0.259-0.895-0.295-1.314l1.262-4.622c0.383-0.603,0.923-1.242,1.702-1.783  c0.081-0.056,0.161-0.109,0.242-0.159L44.169,44.992z M48.535,35.008c0.472-0.092,0.909-0.124,1.286-0.126l-1.358,5.407  c-0.092,0.126-0.167,0.267-0.218,0.423c-0.074,0.226-0.088,0.455-0.058,0.674l-1.403,5.585c0,0,0,0-0.001,0  c-0.154-0.063-0.584-0.241-1.096-0.572L48.535,35.008z M50.536,39.888c-0.136-0.086-0.286-0.152-0.449-0.192  c-0.428-0.105-1.103,0.133-1.033,0.098l1.225-4.898c0.397,0.025,0.681,0.076,0.793,0.099c0.146,0.029,0.369,0.074,0.638,0.147  l-1.187,4.724C50.527,39.871,50.532,39.881,50.536,39.888z M48.477,42.101c0.082,0.114,0.29,0.368,0.657,0.518  c0.217,0.088,0.446,0.12,0.671,0.104l-1.168,4.65c-0.592-0.048-1.085-0.16-1.414-0.255L48.477,42.101z M50.305,42.605  c0.1-0.044,0.754-0.351,0.926-1.035c0.122-0.485-0.019-0.992-0.33-1.362c0.001-0.001,0.002-0.001,0.004-0.003l1.233-4.933  c0.31,0.106,0.652,0.25,0.999,0.445l-2.914,11.599c-0.39,0.062-0.766,0.084-1.117,0.079L50.305,42.605z M53.537,35.966  c0.387,0.265,0.764,0.599,1.091,1.027l-2.42,9.635c-0.496,0.281-0.997,0.469-1.484,0.589L53.537,35.966z M54.963,37.505  c0.957,1.679,0.56,3.471,0.334,4.479c-0.198,0.886-0.657,2.914-2.522,4.276L54.963,37.505z M51.199,33.755  c-0.811-0.145-2.879-0.482-5.083,0.635c-1.666,0.845-2.588,2.104-2.986,2.732c-0.507-0.508-1.046-1.099-1.589-1.779  c-0.55-0.689-1.012-1.355-1.398-1.97c0.81-0.951,3.055-3.327,6.799-4.257c1.342-0.333,4.977-1.236,8.514,0.889  c3.588,2.156,4.525,5.895,4.702,6.672c-0.11,0.321-0.314,0.772-0.699,1.207c-0.856,0.968-1.99,1.161-2.351,1.207  c-0.13-0.67-0.459-1.865-1.398-2.986C54.189,34.288,52.118,33.919,51.199,33.755z M56.307,55.018  c0.181-2.575,0.576-6.09,1.501-10.256c0.057,1.339,0.283,3.307,1.126,5.503c0.824,2.147,1.444,2.445,1.876,4.002  c0.68,2.451-0.665,3.723-1.001,7.504c-0.498,5.611-0.191,8.431-0.75,8.505c-0.786,0.104-2.267-4.322-2.751-8.505  C56.245,61.23,56.018,59.131,56.307,55.018z M23.082,32.135c0.21-0.147,4.037-2.739,8.006-1.017  c1.415,0.614,2.378,1.573,2.986,2.351c1.054-0.814,2.109-1.628,3.163-2.441c0.633,0.753,1.032,1.421,1.237,1.79  c1.318,1.753,2.637,3.505,3.955,5.258c-0.696,0.624-1.398,1.268-2.106,1.933c-0.629,0.591-1.242,1.178-1.839,1.761  c-0.096,1.189,0.04,2.162,0.18,2.819c0.159,0.745,0.398,1.823,1.191,2.955c0.567,0.808,1.208,1.358,1.716,1.716  c0.115-0.866,0.294-1.829,0.572-2.859c0.175-0.651,0.37-1.255,0.572-1.811c0.242,0.441,1.788,3.158,5.147,3.955  c2.893,0.687,5.183-0.512,5.719-0.81c-0.544,0.559-1.344,1.37-2.335,2.335c-1.442,1.404-1.754,1.641-2.097,1.859  c-0.706,0.448-2.139,1.357-3.765,1.048c-0.664-0.126-1.158-0.449-2.145-1.096c-0.954-0.625-1.62-1.238-2.287-1.859  c-1.645-1.528-1.996-2.209-2.573-2.097c-0.345,0.067-0.442,0.352-1.287,1.525c-0.512,0.71-0.953,1.268-1.239,1.62  c-0.151-1.725,0.208-2.879,0.572-3.622c0.391-0.797,0.808-1.159,0.858-2.002c0.057-0.961-0.444-1.212-0.382-2.182  c0.17-3.509,0.339-7.018,0.509-10.526c-1.25,0.953-2.499,1.906-3.749,2.859c-1.108-2.324-3.404-3.863-5.973-4.003  c-2.557-0.139-4.997,1.13-6.354,3.304c-0.174-0.131-0.348-0.261-0.523-0.392C21.258,33.817,21.978,32.909,23.082,32.135z   M28.324,40.341c0.078-0.083,0.543-0.592,0.413-1.281c-0.091-0.485-0.423-0.77-0.53-0.855l1.235-5.164  c0.303,0.109,0.637,0.256,0.977,0.455l-2.848,11.854c-0.381,0.063-0.748,0.086-1.091,0.08l1.113-4.655  C27.748,40.733,28.057,40.623,28.324,40.341z M27.085,37.885c-0.3,0.037-0.576,0.168-0.797,0.358l1.336-5.587  c0.389,0.025,0.665,0.078,0.776,0.101c0.142,0.029,0.361,0.075,0.623,0.15l-1.218,5.07C27.58,37.89,27.333,37.854,27.085,37.885z   M30.81,33.75c0.378,0.27,0.747,0.612,1.067,1.05l-2.366,9.846c-0.485,0.287-0.974,0.48-1.45,0.602L30.81,33.75z M32.204,35.323  c0.935,1.715,0.547,3.547,0.326,4.577c-0.194,0.906-0.642,2.978-2.466,4.37L32.204,35.323z M33.281,61.776  c2.137,0.234,4.016,0.64,5.592,1.08c-0.064,1.08-0.127,2.16-0.191,3.241c-1.556-0.392-3.369-0.743-5.401-0.953  c-1.769-0.182-3.392-0.225-4.829-0.19c-0.021-1.123-0.042-2.245-0.063-3.368C29.826,61.541,31.473,61.578,33.281,61.776z   M39.952,70.799c0.06-1.307-0.147-2.417-0.381-3.241c1.525,0.381,3.05,0.762,4.575,1.144c-0.653,1.113-1.307,2.288-1.954,3.526  c-0.876,1.677-1.65,3.303-2.335,4.861c-0.762-0.048-1.525-0.095-2.287-0.143C38.275,76.064,39.812,73.884,39.952,70.799z   M37.284,60.569c-0.705-0.054-1.522-0.165-2.415-0.381c-0.688-0.167-1.304-0.367-1.843-0.572c0.297-0.254,0.593-0.508,0.89-0.763  c0.257-0.72,0.44-1.366,0.572-1.906c0.14-0.574,0.295-1.209,0.381-2.033c0.14-1.348-0.049-1.81,0.127-1.906  c0.295-0.161,1.373,0.839,4.829,5.973C38.978,59.51,38.131,60.039,37.284,60.569z M21.653,42.974  c-0.262-0.369-0.498-0.794-0.674-1.288c-0.115-0.324-0.192-0.64-0.241-0.948l1.237-5.205c0.371-0.59,0.886-1.209,1.612-1.736  c0.079-0.057,0.158-0.111,0.237-0.163L21.653,42.974z M22.009,43.429l2.338-10.103c0.37-0.192,0.739-0.334,1.094-0.437  l-2.699,11.234C22.499,43.929,22.248,43.7,22.009,43.429z M24.209,44.997C24.208,44.997,24.208,44.997,24.209,44.997  c-0.151-0.065-0.572-0.246-1.072-0.585l2.784-11.641c0.461-0.094,0.889-0.127,1.257-0.128L24.209,44.997z M24.638,45.147  l1.261-5.272c0.211,0.488,0.681,0.866,1.228,0.927l-1.107,4.605C25.441,45.359,24.96,45.244,24.638,45.147z M48.53,87.065  c-2.983,0.131-8.005,0.328-13.153-0.635c-3.21-0.601-6.545-1.652-6.545-1.652c-1.064-0.336-1.953-0.649-2.605-0.89  c0.085-0.635,0.169-1.271,0.254-1.906c0.74,0.299,1.878,0.719,3.304,1.08c2.466,0.626,3.894,0.596,7.561,0.89  c3.653,0.293,5.48,0.439,7.116,0.762c3.022,0.598,3.86,1.147,6.418,1.207c1.144,0.027,1.285-0.076,4.067-0.191  c1.738-0.072,5.128-0.211,5.143-0.048C60.109,85.892,54.635,86.796,48.53,87.065z M59.65,80.266  c-0.833,1.358-1.686,2.536-2.494,3.542c-1.448-0.823-3.021-1.651-4.716-2.459c-2.018-0.961-3.952-1.768-5.768-2.45  c0.205-1.047,0.579-2.405,1.289-3.888c0.807-1.686,1.769-2.945,2.535-3.803c1.875,0.753,3.927,1.693,6.084,2.873  c1.787,0.978,3.392,1.982,4.817,2.958C60.92,78.046,60.345,79.133,59.65,80.266z M52.851,70.1c-5.082-2.258-9.705-3.43-13.28-4.067  c0.042-0.339,0.085-0.678,0.127-1.017c3.851,0.85,8.49,2.196,13.534,4.384c4.802,2.083,8.787,4.416,11.945,6.545  c-0.169,0.402-0.339,0.805-0.508,1.207C61.815,74.947,57.88,72.335,52.851,70.1z M67.545,84.836  c-0.482,1.428-0.476,2.667-0.419,3.387c-0.292-0.083-0.584-0.167-0.875-0.25c-0.031-0.797,0.016-2.033,0.47-3.454  c0.447-1.399,1.112-2.421,1.593-3.049c0.292,0.167,0.584,0.333,0.875,0.5C68.721,82.508,68.008,83.464,67.545,84.836z   M69.509,73.555c-1.929,4.627-3.758,8.541-5.26,11.598c-0.444-0.317-0.887-0.634-1.331-0.951c1.387-2.615,3.275-6.412,5.197-11.155  c0.932-2.299,1.572-4.11,2.852-7.732c2.368-6.7,3.552-10.05,4.5-13.817c0.661-2.628,1.491-6.474,2.028-11.281  c0.523,0.276,1.045,0.552,1.568,0.827c-0.505,4.372-1.244,7.919-1.845,10.407c-1.237,5.116-2.68,9.012-4.667,14.371  C71.342,69.085,70.268,71.734,69.509,73.555z M79.029,59.6c-0.443,1.109-0.904,2.223-1.128,2.682  c-0.385,0.788-0.776,1.322-1.159,2.336c-0.699,0-1.398,0-2.097,0c0.778-2.028,1.555-3.715,2.288-5.726  c0.735-2.016,1.329-4.032,1.811-5.818c0.247,0.054,0.63,0.132,1.033,0.397c0.455,0.3,0.729,0.636,0.874,0.857  C80.126,56.659,79.501,58.419,79.029,59.6z"/></svg>