<svg xmlns="http://www.w3.org/2000/svg" xmlns:xlink="http://www.w3.org/1999/xlink" version="1.1" x="0px" y="0px" viewBox="0 0 100 125" enable-background="new 0 0 100 100" xml:space="preserve"><g><path d="M93.273,26.848c-1.945-4.125-6.865-5.892-10.99-3.948c-0.051,0.024-0.098,0.054-0.148,0.079   c-2.301-3.077-6.52-4.218-10.129-2.517c-1.391,0.655-2.504,1.652-3.307,2.84c-0.498-0.037-1.002-0.013-1.505,0.041   c-4.524-4.132-10.541-6.657-17.137-6.657c-6.602,0-12.623,2.529-17.149,6.668c-0.537-0.065-1.075-0.092-1.607-0.053   c-0.803-1.188-1.916-2.185-3.307-2.84c-3.609-1.702-7.828-0.561-10.129,2.517c-0.051-0.025-0.098-0.055-0.148-0.079   c-4.125-1.944-9.045-0.177-10.99,3.948c-1.943,4.125-0.177,9.045,3.948,10.99c0.065,0.031,0.132,0.053,0.197,0.081   c-0.81,3.68,0.987,7.562,4.54,9.236c1.333,0.629,2.75,0.864,4.123,0.762c0.574,0.85,1.315,1.596,2.196,2.196   c-0.679,1.381-1.048,2.916-1.048,4.498c0,3.621,1.905,6.943,5.003,8.782c2.493,8.273,9.235,11.751,15.659,13.998   c1.408,3.564,4.842,5.921,8.711,5.921s7.303-2.356,8.713-5.92c6.427-2.25,13.174-5.73,15.664-14.013   c3.031-1.811,4.906-5.052,4.967-8.594c0.01-0.06,0.035-0.113,0.035-0.175c0-1.639-0.397-3.184-1.087-4.559   c0.844-0.59,1.56-1.312,2.116-2.135c1.373,0.102,2.79-0.133,4.123-0.762c3.553-1.674,5.35-5.556,4.54-9.236   c0.065-0.028,0.132-0.05,0.197-0.081C93.45,35.894,95.217,30.973,93.273,26.848z M72.98,61.675c-0.265,0.142-0.46,0.386-0.54,0.676   c-2.161,7.814-8.43,10.93-14.881,13.133c-0.326,0.111-0.581,0.37-0.689,0.697c-0.972,2.95-3.71,4.932-6.813,4.932   s-5.841-1.982-6.812-4.933c-0.108-0.328-0.363-0.586-0.689-0.697c-6.448-2.201-12.714-5.313-14.878-13.12   c-0.08-0.29-0.275-0.535-0.542-0.677c-2.597-1.384-4.213-4.056-4.245-6.986c0.002-0.031,0.018-0.057,0.018-0.088   c0-1.087,0.22-2.124,0.613-3.07c0.014-0.03,0.025-0.061,0.039-0.09c0.086-0.201,0.182-0.396,0.283-0.588   c0.039-0.072,0.081-0.143,0.121-0.213c0.346-0.604,0.765-1.161,1.25-1.654c0.022-0.023,0.045-0.047,0.067-0.07   c0.167-0.166,0.341-0.323,0.521-0.474c0.029-0.023,0.059-0.046,0.088-0.069c1.377-1.115,3.127-1.786,5.033-1.786   c2.259,0,4.426,0.961,5.943,2.639c0.407,0.449,1.104,0.485,1.554,0.077s0.485-1.103,0.077-1.554   c-1.934-2.137-4.695-3.362-7.574-3.362c-0.674,0-1.33,0.069-1.968,0.194c0.538-0.572,0.999-1.233,1.353-1.982   c1.486-3.152,0.628-6.801-1.861-8.996c1.484-3.752,3.911-7.033,6.998-9.537c3.994-3.241,9.079-5.188,14.612-5.188   c5.515,0,10.583,1.935,14.572,5.156c3.11,2.512,5.556,5.811,7.046,9.587c-2.473,2.197-3.321,5.835-1.84,8.978   c0.354,0.749,0.814,1.411,1.354,1.982c-0.638-0.125-1.295-0.194-1.969-0.194c-2.242,0-4.377,0.734-6.127,2.05l-0.607-3.543   l3.242-3.16c0.205-0.199,0.277-0.497,0.189-0.769c-0.088-0.271-0.322-0.469-0.605-0.51l-4.479-0.651l-2.004-4.06   c-0.126-0.256-0.387-0.418-0.673-0.418c-0.285,0-0.546,0.162-0.672,0.418l-2.004,4.06L51,38.464   c-0.283,0.041-0.518,0.239-0.605,0.51s-0.016,0.57,0.189,0.769l3.242,3.16l-0.588,3.425c-0.944-0.528-2.031-0.832-3.191-0.832   c-3.618,0-6.553,2.935-6.553,6.553c0,3.619,2.935,6.554,6.553,6.554c3.62,0,6.555-2.935,6.555-6.554   c0-1.658-0.621-3.168-1.637-4.322l3.191-1.677l3.426,1.801c-0.09,0.103-0.189,0.196-0.276,0.303   c-0.384,0.471-0.313,1.164,0.156,1.548c0.471,0.385,1.163,0.314,1.548-0.156c1.53-1.875,3.794-2.95,6.211-2.95   c1.649,0,3.184,0.501,4.459,1.359c0.029,0.025,0.054,0.054,0.086,0.077c1.133,0.789,2.018,1.845,2.611,3.046   c0.535,1.086,0.834,2.29,0.834,3.533C77.211,57.568,75.59,60.275,72.98,61.675z M60.639,40.452v1.967   c0,1.369-1.113,2.483-2.482,2.483s-2.483-1.114-2.483-2.483v-1.967c0-1.369,1.114-2.483,2.483-2.483S60.639,39.083,60.639,40.452z"/><path d="M44.472,42.419v-1.967c0-1.369-1.114-2.483-2.483-2.483s-2.482,1.114-2.482,2.483v1.967c0,1.369,1.113,2.483,2.482,2.483   S44.472,43.788,44.472,42.419z"/><path d="M50,61.364c-1.976,0-3.583,1.607-3.583,3.583v4.219c0,1.976,1.607,3.583,3.583,3.583c1.977,0,3.584-1.607,3.584-3.583   v-4.219C53.584,62.971,51.977,61.364,50,61.364z M51.584,69.167c0,0.873-0.711,1.583-1.584,1.583s-1.583-0.71-1.583-1.583v-4.219   c0-0.873,0.71-1.583,1.583-1.583s1.584,0.71,1.584,1.583V69.167z"/></g><text x="0" y="115" fill="#000000" font-size="5px" font-weight="bold" font-family="'Helvetica Neue', Helvetica, Arial-Unicode, Arial, Sans-serif">Created by mungang kim</text><text x="0" y="120" fill="#000000" font-size="5px" font-weight="bold" font-family="'Helvetica Neue', Helvetica, Arial-Unicode, Arial, Sans-serif">from the Noun Project</text></svg>