<svg xmlns="http://www.w3.org/2000/svg" xmlns:xlink="http://www.w3.org/1999/xlink" version="1.1" x="0px" y="0px" viewBox="0 0 202.139 285.3675" style="enable-background:new 0 0 202.139 228.294;" xml:space="preserve"><g><polygon points="178.676,91.474 178.676,123.474 128.014,123.474 128.014,107.502 124.012,107.076 124.012,126.474    121.012,126.474 121.012,131.142 185.676,131.142 185.676,126.474 182.676,126.474 182.676,87.474 156.776,87.474 154.443,91.474     "/><rect x="111.688" y="133.964" width="90.451" height="6"/><path d="M106.305,175.294v49.86c3.318-2.246,5.501-6.047,5.501-10.357v-37.504v-2H106.305z"/><path d="M65.901,82.538h33.066c0.405-0.047,0.811-0.072,1.207-0.072c0.338,0,0.68,0.017,1.026,0.055l5.901,0.629   c1.305-2.849,2.037-6.015,2.037-9.353c0-12.427-10.072-22.5-22.5-22.5c-12.426,0-22.5,10.073-22.5,22.5   C64.139,76.896,64.766,79.85,65.901,82.538z"/><polygon points="68.067,17.953 72.161,38.786 73.103,38.56 70.953,13.141 62.762,18.523 58.813,0 54.737,1.176 61.045,23.305  "/><polygon points="79.89,39.273 80.676,39.502 89.786,19.938 81.504,20.448 86.391,5.189 82.907,4.338 78.237,23.236 85.641,22.26     "/><polygon points="54.637,30.677 65.19,44.866 65.815,44.363 55.081,26.023 50.852,33.01 41.237,20.503 38.592,22.85 51.277,37.218     "/><path d="M122.139,215.796c0,6.904,5.597,12.498,12.501,12.498c6.903,0,12.499-5.594,12.499-12.498v-55   c0-3.293-1.333-6.512-3.66-8.84c-2.326-2.326-5.549-3.66-8.839-3.66h-26.954v-46.982l29.105,3.104   c0.287,0.031,0.573,0.047,0.857,0.047c2.826,0,5.453-1.488,6.9-3.969l21-36.002c2.227-3.815,0.938-8.715-2.877-10.94   c-3.816-2.227-8.715-0.938-10.941,2.88l-18.393,31.525l-32.35-3.45c-0.646-0.069-1.278-0.05-1.894,0.03H61.323   c-0.573,0-1.13,0.067-1.667,0.186c-0.347,0.011-0.696,0.035-1.048,0.093h-0.002l-22.118,3.591l-8.79-32.687   c-1.146-4.268-5.537-6.796-9.801-5.648c-4.268,1.147-6.797,5.536-5.649,9.803L22.915,99.54c0.951,3.539,4.159,5.924,7.719,5.924   c0.426,0,0.856-0.033,1.288-0.104l21.673-3.52v58.818c0,0.402,0.04,0.793,0.1,1.178c0.319,3.868,2.402,7.228,5.436,9.293h43.178   c1.54,0,2.864,0.884,3.531,2.164h16.301V215.796z"/><path d="M102.307,173.13H51.641c-1.105,0-2,0.896-2,2v50.668c0,1.104,0.895,2,2,2h50.666c1.104,0,2-0.896,2-2V175.13   C104.307,174.026,103.411,173.13,102.307,173.13z"/><path d="M11.182,43.214c-3.035-0.024-4.927,1.592-5.839,3.133c-0.937,1.541-1.084,2.991-1.099,3.072   c-0.059,0.55,0.34,1.044,0.891,1.103c0.035,0.004,0.071,0.006,0.107,0.006c0.504,0,0.938-0.382,0.992-0.895v-0.002   c0,0,0.022-0.238,0.142-0.669c0.423-1.345,1.378-3.733,4.806-3.747c0.387,0,0.805,0.029,1.262,0.099   c0.547,0.085,1.059-0.29,1.141-0.835c0.084-0.547-0.291-1.059-0.835-1.141C12.196,43.252,11.673,43.214,11.182,43.214z"/><path d="M0.84,48.272c0.053,0.009,0.108,0.013,0.159,0.013c0.483,0,0.909-0.35,0.987-0.842c0,0,0.061-0.391,0.279-1.046   c0.71-2.013,2.52-5.788,7.823-5.797c0.753,0,1.583,0.075,2.497,0.253c0.543,0.104,1.068-0.253,1.172-0.793   c0.106-0.544-0.251-1.068-0.793-1.171c-1.029-0.198-1.986-0.289-2.876-0.289c-4.27-0.021-6.921,2.166-8.319,4.284   c-1.418,2.117-1.74,4.158-1.757,4.238C-0.076,47.67,0.296,48.184,0.84,48.272z"/><path d="M22.038,112.81c1.516,0.955,3.107,1.096,4.03,1.1c0.482,0,0.792-0.041,0.827-0.047c0.547-0.074,0.93-0.579,0.853-1.127   c-0.075-0.547-0.579-0.93-1.126-0.852c-0.002,0-0.186,0.025-0.554,0.025c-0.707,0.004-1.935-0.131-2.958-0.788   c-1.016-0.665-1.947-1.774-2.2-4.206c-0.055-0.549-0.543-0.95-1.092-0.898c-0.552,0.055-0.952,0.543-0.898,1.093   C19.184,110.023,20.514,111.861,22.038,112.81z"/><path d="M15.493,106.934c-0.553,0.031-0.972,0.504-0.939,1.055c0.256,4.761,2.389,7.564,4.736,8.979   c2.34,1.426,4.772,1.578,5.846,1.582c0.341,0,0.545-0.016,0.57-0.019c0.551-0.046,0.957-0.53,0.911-1.081   c-0.047-0.549-0.53-0.959-1.08-0.912c0,0-0.126,0.012-0.401,0.012c-0.869,0.004-2.963-0.153-4.801-1.285   c-1.827-1.146-3.514-3.15-3.785-7.393C16.516,107.32,16.041,106.898,15.493,106.934z"/><path d="M164.702,48.695c1.679,0.083,4.05,0.428,4.962,4.426c0.101,0.471,0.515,0.793,0.977,0.793c0.068,0,0.139-0.007,0.209-0.021   c0.54-0.113,0.887-0.646,0.771-1.186c-1-4.992-4.821-6.092-6.919-6.01c-1.015,0-1.714,0.18-1.77,0.193   c-0.536,0.139-0.855,0.686-0.717,1.219c0.138,0.537,0.685,0.856,1.221,0.719h-0.002c0-0.002,0.095-0.027,0.323-0.063   C163.984,48.732,164.314,48.695,164.702,48.695z"/><path d="M174.874,52.516c0.056,0,0.112-0.004,0.17-0.014c0.544-0.096,0.911-0.613,0.816-1.158   c-0.677-3.985-2.515-6.435-4.597-7.771c-2.077-1.342-4.296-1.605-5.796-1.607c-1.1,0-1.83,0.146-1.877,0.154   c-0.543,0.111-0.892,0.641-0.78,1.181c0.109,0.542,0.638,0.892,1.181,0.78h-0.002c0,0,0.115-0.025,0.375-0.055   c0.262-0.03,0.643-0.061,1.104-0.061c1.266-0.002,3.1,0.238,4.709,1.287c1.604,1.052,3.086,2.878,3.711,6.433   C173.972,52.172,174.396,52.516,174.874,52.516z"/><path d="M154.216,153.354c-0.002,0.848-0.239,1.869-0.947,3.112c-0.273,0.48-0.107,1.091,0.373,1.364   c0.156,0.09,0.327,0.132,0.496,0.132c0.347,0.001,0.685-0.181,0.87-0.504c0.848-1.486,1.21-2.869,1.208-4.104   c-0.065-4.155-3.748-5.961-3.817-6.02c-0.49-0.254-1.094-0.06-1.347,0.432c-0.253,0.49-0.06,1.093,0.431,1.346   c0,0,0.138,0.07,0.401,0.252C152.704,149.927,154.235,151.293,154.216,153.354z"/><path d="M157.699,159.588c0.165,0.102,0.348,0.15,0.528,0.15c0.334,0,0.66-0.168,0.852-0.473c1.471-2.363,2.067-4.537,2.066-6.449   c-0.056-5.727-5.004-8.535-5.078-8.602c-0.479-0.277-1.09-0.117-1.365,0.361c-0.28,0.475-0.12,1.087,0.357,1.365   c0,0,0.221,0.129,0.61,0.428c1.188,0.91,3.492,3.146,3.477,6.447c-0.003,1.498-0.453,3.28-1.766,5.391   C157.085,158.678,157.231,159.295,157.699,159.588z"/></g></svg>