<svg xmlns="http://www.w3.org/2000/svg" xmlns:xlink="http://www.w3.org/1999/xlink" version="1.1" x="0px" y="0px" viewBox="0 0 100 125" enable-background="new 0 0 100 100" xml:space="preserve"><path d="M49.958,13.333c0.014,0,0.028,0.002,0.042,0.002c0.014,0,0.028-0.002,0.042-0.002H49.958z"/><circle cx="24.897" cy="71.758" r="4.626"/><path d="M50,47.011c-5.453,0.023-9.882,4.466-9.882,9.923s4.429,9.9,9.882,9.923c5.452-0.023,9.881-4.466,9.881-9.923  S55.452,47.034,50,47.011z M50,62.558c0.014,0,0.028,0.002,0.042,0.002h-0.084C49.972,62.56,49.986,62.558,50,62.558  c-3.088-0.023-5.584-2.531-5.584-5.624c0-3.093,2.497-5.601,5.584-5.624c-0.014,0-0.028-0.002-0.042-0.002h0.084  c-0.014,0-0.028,0.002-0.042,0.002c3.088,0.023,5.584,2.531,5.584,5.624C55.584,60.027,53.088,62.535,50,62.558z"/><path d="M50,32.868c2.531-0.023,4.584-2.089,4.584-4.626S52.531,23.639,50,23.616c-2.531,0.023-4.584,2.089-4.584,4.626  S47.469,32.845,50,32.868z"/><path d="M24.897,61.835c-5.472,0-9.924,4.452-9.924,9.923s4.452,9.923,9.924,9.923s9.923-4.452,9.923-9.923  S30.368,61.835,24.897,61.835z M24.897,78.384c-3.653,0-6.626-2.972-6.626-6.626s2.973-6.626,6.626-6.626s6.626,2.972,6.626,6.626  S28.55,78.384,24.897,78.384z"/><path d="M83.817,59.66c-1.846-1.332-4.108-2.346-6.381-2.637c-2.885-0.369-5.703-0.034-8.413-1.36  c-2.694-1.318-4.82-3.538-6.275-6.139c-1.334-2.497-2.055-5.318-1.823-8.155c0.097-1.181,0.33-2.419,0.794-3.511  c0.651-1.534,1.647-2.885,2.23-4.454c0.611-1.647,0.918-3.406,0.918-5.161c0-8.22-6.652-14.883-14.867-14.906  c-8.214,0.023-14.867,6.687-14.867,14.906c0,1.756,0.306,3.515,0.918,5.161c0.583,1.569,1.579,2.92,2.23,4.454  c0.463,1.092,0.697,2.33,0.793,3.511c0.232,2.837-0.488,5.658-1.822,8.155c-1.454,2.601-3.581,4.821-6.275,6.139  c-2.71,1.326-5.528,0.991-8.413,1.36c-2.273,0.291-4.535,1.306-6.381,2.637c-3.859,2.784-6.195,7.339-6.195,12.098  c0,8.234,6.675,14.909,14.909,14.909c5.222,0,9.591-2.825,12.486-7.051c1.105-1.613,1.863-3.154,3.396-4.412  c1.715-1.407,3.777-2.348,5.946-2.799c1.076-0.224,2.176-0.325,3.275-0.33c1.099,0.005,2.199,0.106,3.275,0.33  c2.168,0.451,4.23,1.391,5.946,2.799c1.533,1.258,2.291,2.799,3.396,4.412c2.896,4.226,7.264,7.051,12.486,7.051  c8.234,0,14.909-6.675,14.909-14.909C90.012,66.999,87.677,62.444,83.817,59.66z M24.897,83.681  c-6.575,0-11.924-5.349-11.924-11.923s5.349-11.923,11.924-11.923c6.574,0,11.923,5.349,11.923,11.923S31.471,83.681,24.897,83.681z   M38.118,28.242c0-6.535,5.285-11.859,11.806-11.923c0.025-0.001,0.05-0.001,0.076,0c0.024,0,0.051-0.001,0.076,0  c6.521,0.063,11.805,5.388,11.805,11.923s-5.284,11.859-11.805,11.923c-0.012,0-0.022,0-0.034,0h-0.084c-0.012,0-0.022,0-0.034,0  C43.404,40.101,38.118,34.777,38.118,28.242z M50.076,68.857c-0.012,0-0.022,0-0.034,0h-0.084c-0.012,0-0.022,0-0.034,0  c-6.521-0.063-11.806-5.388-11.806-11.923s5.285-11.859,11.806-11.923c0.025-0.001,0.05-0.001,0.076,0c0.024,0,0.051-0.001,0.076,0  c6.521,0.063,11.805,5.388,11.805,11.923S56.597,68.794,50.076,68.857z M75.104,83.681c-6.575,0-11.924-5.349-11.924-11.923  s5.349-11.923,11.924-11.923c6.574,0,11.923,5.349,11.923,11.923S81.678,83.681,75.104,83.681z"/><circle cx="75.104" cy="71.758" r="4.626"/><path d="M75.104,61.835c-5.472,0-9.924,4.452-9.924,9.923s4.452,9.923,9.924,9.923s9.923-4.452,9.923-9.923  S80.575,61.835,75.104,61.835z M75.104,78.384c-3.654,0-6.627-2.972-6.627-6.626s2.973-6.626,6.627-6.626  c3.653,0,6.626,2.972,6.626,6.626S78.757,78.384,75.104,78.384z"/><path d="M50,38.165c5.452-0.023,9.881-4.466,9.881-9.923s-4.429-9.9-9.881-9.923c-5.453,0.023-9.882,4.466-9.882,9.923  S44.547,38.142,50,38.165z M49.905,21.617c0.031-0.001,0.064-0.001,0.096-0.001s0.064,0,0.096,0.001  c3.59,0.073,6.488,3.017,6.488,6.625s-2.898,6.551-6.488,6.625c-0.018,0.001-0.036,0.001-0.054,0.001h-0.084  c-0.018,0-0.036,0-0.054-0.001c-3.59-0.073-6.488-3.017-6.488-6.625S46.315,21.691,49.905,21.617z"/><text x="0" y="115" fill="#000000" font-size="5px" font-weight="bold" font-family="'Helvetica Neue', Helvetica, Arial-Unicode, Arial, Sans-serif">Created by Alina Oleynik</text><text x="0" y="120" fill="#000000" font-size="5px" font-weight="bold" font-family="'Helvetica Neue', Helvetica, Arial-Unicode, Arial, Sans-serif">from the Noun Project</text></svg>