<svg xmlns:dc="http://purl.org/dc/elements/1.1/" xmlns:cc="http://creativecommons.org/ns#" xmlns:rdf="http://www.w3.org/1999/02/22-rdf-syntax-ns#" xmlns:svg="http://www.w3.org/2000/svg" xmlns="http://www.w3.org/2000/svg" xmlns:sodipodi="http://sodipodi.sourceforge.net/DTD/sodipodi-0.dtd" xmlns:inkscape="http://www.inkscape.org/namespaces/inkscape" viewBox="0 0 100 125" version="1.1" x="0px" y="0px"><g transform="translate(0,-952.36216)"><path style="" d="M 39.910156 23.212891 C 36.980986 23.212891 34.599609 25.596191 34.599609 28.525391 C 34.599609 31.472791 36.981776 33.835938 39.910156 33.835938 C 42.857616 33.835938 45.248047 31.472791 45.248047 28.525391 C 45.248047 25.596191 42.857616 23.212891 39.910156 23.212891 z M 55.824219 32.630859 L 55.824219 32.632812 A 2.0850949 2.0850949 0 0 0 53.916016 33.919922 L 53.273438 35.412109 L 42.107422 35.412109 L 42.105469 35.412109 C 40.511079 35.412109 40.126251 35.412178 39.212891 35.205078 C 38.973071 35.146078 38.739449 35.091163 38.511719 35.039062 C 38.403378 35.012397 38.339532 34.99893 38.216797 34.96875 L 38.212891 34.96875 C 33.366228 33.903108 31.26716 34.564032 29.240234 37.507812 C 29.235234 37.517812 29.228056 37.525203 29.222656 37.533203 C 29.125556 37.691903 29.033151 37.839666 28.931641 38.009766 L 28.884766 38.085938 C 28.684556 38.422338 28.474196 38.782963 28.253906 39.164062 C 27.865526 39.846162 27.487074 40.545906 27.121094 41.253906 C 27.119094 41.253906 27.118188 41.253672 27.117188 41.263672 C 26.752588 41.969272 26.399833 42.683337 26.064453 43.398438 C 24.523223 46.684538 23.327787 49.875353 22.960938 52.501953 A 2.9787165 2.9787165 0 0 0 22.763672 53.519531 C 22.252982 56.636431 20.463986 59.300725 17.597656 62.015625 C 14.627046 64.829325 10.574125 67.543325 6.328125 70.453125 A 2.9787165 2.9787165 0 1 0 9.6953125 75.367188 C 13.893012 72.490387 18.171402 69.677644 21.695312 66.339844 C 24.573963 63.613244 26.995397 60.431894 28.148438 56.621094 C 32.159607 56.863094 35.347194 57.746784 37.052734 59.396484 C 39.083514 61.360784 40.206834 64.956794 38.052734 72.996094 A 2.9787165 2.9787165 0 1 0 43.806641 74.537109 C 46.234281 65.477109 45.185153 58.974334 41.195312 55.115234 C 39.517162 53.492034 37.527211 52.435106 35.363281 51.753906 C 36.496061 48.208906 37.420782 45.797344 38.951172 43.089844 L 51.408203 46.033203 L 51.691406 47.634766 A 2.0850949 2.0850949 0 1 0 55.796875 46.910156 L 55.277344 43.958984 A 2.0850949 2.0850949 0 0 0 53.703125 42.291016 L 42.228516 39.580078 L 54.646484 39.580078 A 2.0850949 2.0850949 0 0 0 56.5625 38.320312 L 57.746094 35.566406 A 2.0850949 2.0850949 0 0 0 55.824219 32.630859 z M 86.746094 33.109375 C 84.467044 33.109375 82.403686 34.031791 80.910156 35.525391 C 78.855816 37.215091 75.915954 37.290684 73.777344 35.708984 C 74.020604 36.614184 74.479744 37.447719 75.115234 38.136719 C 75.927474 39.012819 76.989753 39.616034 78.158203 39.865234 C 72.439273 40.249834 66.220555 41.910225 64.609375 47.140625 C 74.892815 40.075225 79.568074 49.615234 86.746094 49.615234 C 89.025154 49.615234 91.088491 48.690746 92.582031 47.197266 C 94.075561 45.703766 95 43.640328 95 41.361328 C 95 39.082228 94.075561 37.018891 92.582031 35.525391 C 91.088491 34.031791 89.025154 33.109375 86.746094 33.109375 z " transform="translate(0,952.36216)" fill="#000000"/></g></svg>