<svg xmlns="http://www.w3.org/2000/svg" xmlns:xlink="http://www.w3.org/1999/xlink" version="1.1" x="0px" y="0px" viewBox="0 0 100 125" style="enable-background:new 0 0 100 100;" xml:space="preserve"><style type="text/css">
	.st0{fill:none;stroke:#000000;stroke-linecap:round;stroke-linejoin:round;stroke-miterlimit:10;}
	.st1{fill:none;stroke:#000000;stroke-miterlimit:10;}
</style><g><path d="M85.9,34.1H14.1c-0.3,0-0.5,0.2-0.5,0.5v30.8c0,0.3,0.2,0.5,0.5,0.5h71.8c0.3,0,0.5-0.2,0.5-0.5V34.6   C86.4,34.3,86.2,34.1,85.9,34.1z M85.4,64.9H14.6V35.1h70.8V64.9z"/><path d="M16.2,63.9h21.1h20.2h26.5c0.3,0,0.5-0.2,0.5-0.5V39.5c0-0.3-0.2-0.5-0.5-0.5H57.5H37.3H16.2c-0.3,0-0.5,0.2-0.5,0.5v23.8   C15.7,63.7,15.9,63.9,16.2,63.9z M37.8,62.9v-1.3H57v1.3H37.8z M57,40v2.1H37.8V40H57z M16.7,40h20.1v2.6c0,0.3,0.2,0.5,0.5,0.5   h20.2c0.3,0,0.5-0.2,0.5-0.5V40h25.5v22.8H58v-1.8c0-0.3-0.2-0.5-0.5-0.5H37.3c-0.3,0-0.5,0.2-0.5,0.5v1.8H16.7V40z"/><path d="M60.3,60.8h8.6c0.3,0,0.5-0.2,0.5-0.5v-7.9c0-0.3-0.2-0.5-0.5-0.5h-8.6c-0.3,0-0.5,0.2-0.5,0.5v7.9   C59.8,60.6,60,60.8,60.3,60.8z M60.8,52.9h7.6v6.9h-7.6V52.9z"/><path d="M70.1,60.8h8.6c0.3,0,0.5-0.2,0.5-0.5v-7.9c0-0.3-0.2-0.5-0.5-0.5h-8.6c-0.3,0-0.5,0.2-0.5,0.5v7.9   C69.6,60.6,69.8,60.8,70.1,60.8z M70.6,52.9h7.6v6.9h-7.6V52.9z"/><path d="M37.3,47.7h20.2c0.3,0,0.5-0.2,0.5-0.5v-3.1c0-0.3-0.2-0.5-0.5-0.5H37.3c-0.3,0-0.5,0.2-0.5,0.5v3.1   C36.8,47.5,37,47.7,37.3,47.7z M37.8,44.6H57v2.1H37.8V44.6z"/><path d="M37.3,52.3h20.2c0.3,0,0.5-0.2,0.5-0.5v-3.1c0-0.3-0.2-0.5-0.5-0.5H37.3c-0.3,0-0.5,0.2-0.5,0.5v3.1   C36.8,52,37,52.3,37.3,52.3z M37.8,49.2H57v2.1H37.8V49.2z"/><path d="M57.2,52.8H37.7c-0.3,0-0.5,0.2-0.5,0.5v6.3c0,0.3,0.2,0.5,0.5,0.5h19.5c0.3,0,0.5-0.2,0.5-0.5v-6.3   C57.7,53,57.4,52.8,57.2,52.8z M56.7,59H38.2v-5.3h18.5V59z"/><path d="M41.2,58h3.4c0.9,0,1.7-0.8,1.7-1.7s-0.8-1.7-1.7-1.7h-3.4c-0.9,0-1.7,0.8-1.7,1.7S40.3,58,41.2,58z M41.2,55.6h3.4   c0.4,0,0.7,0.3,0.7,0.7S45,57,44.6,57h-3.4c-0.4,0-0.7-0.3-0.7-0.7S40.8,55.6,41.2,55.6z"/><path d="M50.6,58H54c0.9,0,1.7-0.8,1.7-1.7S55,54.6,54,54.6h-3.4c-0.9,0-1.7,0.8-1.7,1.7S49.7,58,50.6,58z M50.6,55.6H54   c0.4,0,0.7,0.3,0.7,0.7S54.4,57,54,57h-3.4c-0.4,0-0.7-0.3-0.7-0.7S50.2,55.6,50.6,55.6z"/><path d="M64.6,53c-1.8,0-3.3,1.5-3.3,3.3s1.5,3.3,3.3,3.3s3.3-1.5,3.3-3.3S66.4,53,64.6,53z M64.6,58.7c-1.3,0-2.3-1-2.3-2.3   s1-2.3,2.3-2.3s2.3,1,2.3,2.3S65.8,58.7,64.6,58.7z"/><path d="M74.4,53c-1.8,0-3.3,1.5-3.3,3.3s1.5,3.3,3.3,3.3s3.3-1.5,3.3-3.3S76.2,53,74.4,53z M74.4,58.7c-1.3,0-2.3-1-2.3-2.3   s1-2.3,2.3-2.3c1.3,0,2.3,1,2.3,2.3S75.7,58.7,74.4,58.7z"/><path d="M33.5,50.1l-3.7,0v-3.7c0-0.3-0.2-0.5-0.5-0.5h-4.5c-0.3,0-0.5,0.2-0.5,0.5v3.7h-3.7c-0.3,0-0.5,0.2-0.5,0.5v4.5   c0,0.3,0.2,0.5,0.5,0.5h3.7v3.7c0,0.3,0.2,0.5,0.5,0.5h4.5c0.3,0,0.5-0.2,0.5-0.5v-3.7h3.7c0.3,0,0.5-0.2,0.5-0.5v-4.5   C34,50.3,33.7,50.1,33.5,50.1z M33,54.6h-3.7c-0.3,0-0.5,0.2-0.5,0.5v3.7h-3.5v-3.7c0-0.3-0.2-0.5-0.5-0.5h-3.7v-3.5h3.7   c0.3,0,0.5-0.2,0.5-0.5v-3.7h3.5v3.7c0,0.3,0.2,0.5,0.5,0.5l3.7,0V54.6z"/></g></svg>