<svg xmlns="http://www.w3.org/2000/svg" viewBox="0 0 100 125" x="0px" y="0px"><title>Bluethoot Headset</title><g data-name="Livello 9"><path d="M97.79,83.45a10.5,10.5,0,0,0-3.33-7L66.11,50a43,43,0,0,0,.66-7.44,41.83,41.83,0,0,0-2.55-14.5,37.81,37.81,0,0,0-7-11.83,32.51,32.51,0,0,0-10.33-8,28.84,28.84,0,0,0-24.09-.57,31.9,31.9,0,0,0-9.66,6.53A36.43,36.43,0,0,0,6.05,24,40.59,40.59,0,0,0,2.2,36.3a1.34,1.34,0,0,0,1,1.55,1.2,1.2,0,0,0,1.35-1.1A37.79,37.79,0,0,1,8.08,25.38a34.07,34.07,0,0,1,6.61-9.12,29.35,29.35,0,0,1,9-6A26.68,26.68,0,0,1,34.26,8a26.24,26.24,0,0,1,6,.69,27.08,27.08,0,0,1,5.74,2,30.15,30.15,0,0,1,9.59,7.4,35.18,35.18,0,0,1,6.47,11,38.95,38.95,0,0,1,2,19L47,32.21a8.19,8.19,0,0,0-3-1.79,8.39,8.39,0,0,0-6.52.42A8.36,8.36,0,0,0,34.83,33l-7.76,9.4a8.4,8.4,0,0,0-1.86,6.4A8.65,8.65,0,0,0,26.28,52a8.35,8.35,0,0,0,1.9,2.24c.14.12.28.22.43.33L81.1,92.65a10.53,10.53,0,0,0,16.69-9.2ZM45.9,50.05a4.62,4.62,0,1,1-.62-6.51A4.62,4.62,0,0,1,45.9,50.05ZM81.14,79.67,49.85,53.82l.5-.61,31.3,25.85Z"/></g></svg>