<svg xmlns="http://www.w3.org/2000/svg" xmlns:xlink="http://www.w3.org/1999/xlink" version="1.1" x="0px" y="0px" viewBox="0 0 100 125" enable-background="new 0 0 100 100" xml:space="preserve"><g><path fill="none" d="M59.322,17.08H40.676c-1.645,0-2.686,0.878-3.16,1.401c-0.474,0.522-1.246,1.646-1.084,3.283l0.736,6.612   C41.165,26.872,45.477,26.01,50,26.01c4.524,0,8.836,0.862,12.833,2.367l0.744-6.685c0.154-1.563-0.619-2.686-1.092-3.21   C62.01,17.958,60.968,17.08,59.322,17.08z"/><path d="M74.219,35.264l1.37-12.313c0.732-7.425-3.692-14.861-11.64-17.296C62.378,5.175,60.722,5,59.079,5H41.157   c-2.447,0-4.911,0.395-7.14,1.407c-6.653,3.02-10.278,9.744-9.598,16.62l1.361,12.238c-7.502,6.681-12.255,16.384-12.255,27.219   c0,11.101,4.97,21.025,12.799,27.707C29.976,93.306,34.632,95,39.431,95h21.201c4.333,0,8.637-1.284,12.032-3.978   c8.409-6.675,13.809-16.967,13.809-28.538C86.474,51.648,81.721,41.945,74.219,35.264z M63.577,21.692l-0.744,6.685   C58.836,26.872,54.524,26.01,50,26.01c-4.523,0-8.835,0.862-12.832,2.367l-0.736-6.612c-0.162-1.638,0.61-2.761,1.084-3.283   c0.474-0.524,1.515-1.401,3.16-1.401h18.645c1.646,0,2.688,0.878,3.163,1.401C62.958,19.005,63.731,20.128,63.577,21.692z"/></g><text x="0" y="115" fill="#000000" font-size="5px" font-weight="bold" font-family="'Helvetica Neue', Helvetica, Arial-Unicode, Arial, Sans-serif">Created by Alena Artemova</text><text x="0" y="120" fill="#000000" font-size="5px" font-weight="bold" font-family="'Helvetica Neue', Helvetica, Arial-Unicode, Arial, Sans-serif">from the Noun Project</text></svg>