<svg xmlns:dc="http://purl.org/dc/elements/1.1/" xmlns:cc="http://creativecommons.org/ns#" xmlns:rdf="http://www.w3.org/1999/02/22-rdf-syntax-ns#" xmlns:svg="http://www.w3.org/2000/svg" xmlns="http://www.w3.org/2000/svg" xmlns:sodipodi="http://sodipodi.sourceforge.net/DTD/sodipodi-0.dtd" xmlns:inkscape="http://www.inkscape.org/namespaces/inkscape" version="1.1" viewBox="0 0 110 137.5" stroke-miterlimit="10" style="" x="0px" y="0px" fill="none" stroke="none"><clipPath><path d="M 0,0 H 351.5013 V 656.52234 H 0 Z" style="" clip-rule="nonzero"/></clipPath><path style="" d="m 34.89239,7.8458532 v 0 c 0,-1.40321 1.13752,-2.54073 2.54073,-2.54073 h 35.2335 c 0.67384,0 1.32009,0.26768 1.79657,0.74416 0.47648,0.47648 0.74416,1.12273 0.74416,1.79657 V 18.008486 c 0,1.40321 -1.13753,2.54073 -2.54073,2.54073 h -35.2335 v 0 c -1.40321,0 -2.54073,-1.13752 -2.54073,-2.54073 z" fill-opacity="0"/><path style="" d="m 37.43255,5.3050732 c -1.40321,0 -2.54102,1.1378 -2.54102,2.54101 V 18.008196 c 0,1.40321 1.13781,2.54102 2.54102,2.54102 h 35.23437 c 1.40321,0 2.54102,-1.13781 2.54102,-2.54102 V 7.8460832 c 0,-0.67384 -0.26766,-1.32039 -0.74414,-1.79687 -0.47648,-0.47648 -1.12303,-0.74414 -1.79688,-0.74414 z M 29.57708,20.582416 c -9.0768,0 -16.43555,7.35875 -16.43555,16.43555 v 41.93359 c 0,9.0768 7.35875,16.43555 16.43555,16.43555 h 50.8457 c 9.0768,0 16.43555,-7.35875 16.43555,-16.43555 v -41.93359 c 0,-4.35884 -1.7323,-8.53894 -4.81446,-11.6211 -3.08216,-3.08216 -7.26226,-4.81445 -11.62109,-4.81445 z m -0.98633,74.83789 v 9.070344 h 52.81836 v -9.070344 z" fill-rule="evenodd" stroke="#000000" stroke-width="4" stroke-linecap="butt" stroke-linejoin="round"/><path style="" d="m 13.14173,37.018336 v 0 c 0,-9.0768 7.3582,-16.435 16.435,-16.435 h 50.84654 v 0 c 4.35883,0 8.53914,1.73154 11.6213,4.8137 3.08216,3.08216 4.8137,7.26247 4.8137,11.6213 v 41.93316 c 0,9.0768 -7.3582,16.435 -16.435,16.435 H 29.57673 c -9.0768,0 -16.435,-7.3582 -16.435,-16.435 z" fill-opacity="0"/><path style="" d="M 28.59055,95.420606 H 81.40944 V 104.4915 H 28.59055 Z" fill-opacity="0"/><path style="" d="m 42.96185,54.010146 c -2.37439,0 -4.29883,1.92444 -4.29883,4.29883 0,2.37439 1.92444,4.30078 4.29883,4.30078 2.37439,0 4.29882,-1.92639 4.29882,-4.30078 0,-1.14022 -0.45155,-2.2328 -1.25781,-3.03906 -0.80626,-0.80626 -1.90079,-1.25977 -3.04101,-1.25977 z m 24.09765,0 c -2.37439,0 -4.29883,1.92444 -4.29883,4.29883 0,2.37439 1.92444,4.30078 4.29883,4.30078 2.37439,0 4.29883,-1.92639 4.29883,-4.30078 0,-1.14022 -0.45351,-2.2328 -1.25977,-3.03906 -0.80625,-0.80626 -1.89884,-1.25977 -3.03906,-1.25977 z" fill="#000000" fill-rule="evenodd"/><path style="" d="m 71.32905,72.732376 v 0 c -1.24244,3.60275 -8.24518,6.26064 -16.44701,6.24243 -8.20184,-0.0182 -15.11863,-2.70696 -16.24517,-6.31497 L 55,71.636296 Z" fill-opacity="0"/><path style="" d="m 38.63763,72.660536 c 1.12653,3.60801 8.0423,6.29626 16.24414,6.31446 8.20183,0.0182 15.20482,-2.63944 16.44726,-6.24219 z" fill-opacity="0"/><path style="" d="m 81.943676,65.675781 c -0.13657,0.0089 -0.27409,0.03232 -0.4082,0.06836 -0.53649,0.14413 -0.99407,0.495302 -1.27149,0.976562 -0.57768,1.00223 -0.23268,2.283658 0.76953,2.861328 1.00221,0.5777 2.28364,0.232699 2.86133,-0.769531 0.57768,-1.00219 0.23268,-2.283638 -0.76953,-2.861328 -0.36096,-0.20805 -0.77195,-0.302152 -1.18164,-0.275391 z m -51.38672,0.929688 c -1.15675,0 -2.09375,0.938933 -2.09375,2.095703 0,1.15674 0.937,2.09375 2.09375,2.09375 1.15676,0 2.09375,-0.93701 2.09375,-2.09375 0,-0.55551 -0.22049,-1.089632 -0.61328,-1.482422 -0.3928,-0.39279 -0.92497,-0.613281 -1.48047,-0.613281 z m -8.93359,2.128906 c -1.15675,0 -2.09571,0.938933 -2.09571,2.095703 0,1.15674 0.93896,2.09375 2.09571,2.09375 1.15677,0 2.09375,-0.93701 2.09375,-2.09375 0,-0.55548 -0.2205,-1.089632 -0.61328,-1.482422 -0.3928,-0.39279 -0.92497,-0.613281 -1.48047,-0.613281 z m 66.54687,3.427734 c -0.13656,0.0089 -0.27213,0.03232 -0.40625,0.06836 -0.53649,0.14416 -0.99406,0.495272 -1.27148,0.976562 -0.57768,1.0022 -0.23268,2.283658 0.76953,2.861328 1.00221,0.5777 2.28168,0.232699 2.85937,-0.769531 0.57768,-1.00219 0.23463,-2.283668 -0.76757,-2.861328 -0.36096,-0.208072 -0.77391,-0.302151 -1.1836,-0.275391 z m -8.8457,2.31836 c -0.13657,0.0089 -0.27213,0.03036 -0.40625,0.06641 -0.53649,0.14416 -0.99407,0.495272 -1.27149,0.976563 -0.57768,1.002199 -0.23267,2.283658 0.76954,2.861328 1.0022,0.5777 2.28168,0.232698 2.85937,-0.769532 0.57768,-1.00219 0.23463,-2.281715 -0.76758,-2.859375 -0.36096,-0.208072 -0.7739,-0.30215 -1.18359,-0.27539 z m -51.27735,0.761719 c -1.15675,0 -2.09375,0.93698 -2.09375,2.09375 0,1.156739 0.937,2.09375 2.09375,2.09375 1.15676,0 2.09571,-0.937011 2.09571,-2.09375 0,-0.55548 -0.22049,-1.087679 -0.61328,-1.480469 -0.3928,-0.39279 -0.92693,-0.613281 -1.48243,-0.613281 z" fill="#000000" fill-rule="evenodd"/><path style="" d="m 38.53774,72.760436 c 0,0 15.72846,12.75282 32.8739,0" stroke-miterlimit="10" fill="none" stroke="#000000" stroke-width="4.53433323" stroke-linecap="round"/><path style="color:#000000;font-style:normal;font-variant:normal;font-weight:normal;font-stretch:normal;font-size:medium;line-height:normal;font-family:sans-serif;font-variant-ligatures:normal;font-variant-position:normal;font-variant-caps:normal;font-variant-numeric:normal;font-variant-alternates:normal;font-feature-settings:normal;text-indent:0;text-align:start;text-decoration:none;text-decoration-line:none;text-decoration-style:solid;text-decoration-color:#000000;letter-spacing:normal;word-spacing:normal;text-transform:none;writing-mode:lr-tb;direction:ltr;text-orientation:mixed;dominant-baseline:auto;baseline-shift:baseline;text-anchor:start;white-space:normal;shape-padding:0;clip-rule:nonzero;display:inline;overflow:visible;visibility:visible;opacity:1;isolation:auto;mix-blend-mode:normal;color-interpolation:sRGB;color-interpolation-filters:linearRGB;solid-color:#000000;solid-opacity:1;vector-effect:none;fill:#000000;fill-opacity:1;fill-rule:evenodd;stroke:none;stroke-width:2;stroke-linecap:butt;stroke-linejoin:round;stroke-miterlimit:10;stroke-dasharray:none;stroke-dashoffset:0;stroke-opacity:1;color-rendering:auto;image-rendering:auto;shape-rendering:auto;text-rendering:auto;enable-background:accumulate" d="m 41.43374,46.621807 c -6.2538,0 -11.3457,5.09191 -11.3457,11.3457 0,6.25382 5.09189,11.34375 11.3457,11.34375 5.57049,0 10.20721,-4.04159 11.15626,-9.34375 h 4.8164 c 0.94905,5.30216 5.58578,9.34375 11.15625,9.34375 6.25381,0 11.3457,-5.08993 11.3457,-11.34375 0,-3.00848 -1.19494,-5.89416 -3.32226,-8.02148 -2.12733,-2.12734 -5.01496,-3.32422 -8.02344,-3.32422 -5.57047,0 -10.2072,4.04322 -11.15625,9.3457 H 52.59 c -0.40612,-2.26467 -1.48554,-4.37226 -3.13477,-6.02148 -2.12733,-2.12734 -5.01299,-3.32422 -8.02149,-3.32422 z m 0,2 c 2.47884,0 4.85463,0.98548 6.60743,2.73828 1.75279,1.7528 2.73631,4.12861 2.73633,6.60742 0,5.17294 -4.17081,9.34375 -9.34376,9.34375 -5.17292,0 -9.3457,-4.17081 -9.3457,-9.34375 0,-5.17291 4.17278,-9.3457 9.3457,-9.3457 z m 27.12891,0 c 2.47882,0 4.85658,0.98548 6.60938,2.73828 1.75279,1.7528 2.73632,4.12861 2.73632,6.60742 0,5.17294 -4.17277,9.34375 -9.3457,9.34375 -5.17294,0 -9.34375,-4.17081 -9.34375,-9.34375 0,-5.17291 4.17081,-9.3457 9.34375,-9.3457 z"/><text x="0" y="125" fill="#000000" font-size="5px" font-weight="bold" font-family="'Helvetica Neue', Helvetica, Arial-Unicode, Arial, Sans-serif">Created by Swen-Peter Ekkebus</text><text x="0" y="130" fill="#000000" font-size="5px" font-weight="bold" font-family="'Helvetica Neue', Helvetica, Arial-Unicode, Arial, Sans-serif">from the Noun Project</text></svg>