<svg xmlns="http://www.w3.org/2000/svg" data-name="Layer 1" viewBox="0 0 90 84.8625" x="0px" y="0px"><title>01</title><path d="M40.68,38.2a.56.56,0,0,0-.83,0c-.35.38-2,2-2.05,2.06a.56.56,0,0,0-.15.55,2.55,2.55,0,0,0,1.79,1.56,2.48,2.48,0,0,0,1.64,0,2.55,2.55,0,0,0,1.79-1.56.56.56,0,0,0-.15-.55S41,38.58,40.68,38.2Zm0,3.11a1.33,1.33,0,0,1-.9,0,2.29,2.29,0,0,1-.93-.54l1.38-1.38,1.38,1.38A2.3,2.3,0,0,1,40.71,41.31Z" transform="translate(-5 -16.06)"/><path d="M37.67,35.86a.83.83,0,0,0,.59-.6.55.55,0,0,1,.16.13A19.64,19.64,0,0,1,39.56,37a.84.84,0,0,0,.7.38h0A.84.84,0,0,0,41,37c.54-.83,1-1.44,1.13-1.63a.55.55,0,0,1,.16-.13.81.81,0,0,0,.59.6,1,1,0,0,0,1-.38A2.44,2.44,0,0,0,44,32.84c0-.13-1-3.2-3.78-3.2s-3.67,2.88-3.77,3.18a2.6,2.6,0,0,0,.16,2.66A1.05,1.05,0,0,0,37.67,35.86Zm-.13-2.65v0s.78-2.41,2.71-2.41S43,33.15,43,33.21a2,2,0,0,1,.16,1.31,1,1,0,0,0-.55-.37,1.37,1.37,0,0,0-1.33.5,16.22,16.22,0,0,0-1,1.4,15.21,15.21,0,0,0-1-1.4,1.46,1.46,0,0,0-1.07-.53,1.06,1.06,0,0,0-.26,0,1,1,0,0,0-.55.37A2,2,0,0,1,37.54,33.21Z" transform="translate(-5 -16.06)"/><path d="M73.32,77.49a2.29,2.29,0,0,0,1.32-2.83c-.59-1.78-2-4.95-4.67-6.19a11.45,11.45,0,0,1-3.73-3.08,11.35,11.35,0,0,0-4.74-3.58.56.56,0,0,0-.74.43,2.09,2.09,0,0,1-2.26,1.59h0l-.13,0-.09,0a.56.56,0,0,0-.11.08l-.07,0h0a.54.54,0,0,0-.07.13l0,.06a.56.56,0,0,0,0,.23h0c0,.09.24,2.2-2.66,2.64h0l-.06,0-.11.06a.55.55,0,0,0-.12.11l0,0,0,.06a.55.55,0,0,0-.05.33v0a.55.55,0,0,0,0,.12.58.58,0,0,0,.07.13h0a.6.6,0,0,1,.08.46c-.05.28-.31.87-1.5,1.63l0,0,0,0a.56.56,0,0,0-.12.16h0v0a.56.56,0,0,0,0,.17s0,0,0,.05,0,0,0,0c.09,1.12-.1,2.71-.6,2.78a.56.56,0,0,0-.17,1.06c.79.39,7.82,3.79,9.95,3.79.39,0,.92.05,1.54.11,1,.09,2.11.21,3.38.21A15.57,15.57,0,0,0,73.32,77.49Zm-10.89-.36c-1.4,0-6.1-2.08-8.61-3.27a4.71,4.71,0,0,0,.58-2.39L60,74.1a.56.56,0,0,0,.48-1l-5.58-2.61a3.2,3.2,0,0,0,1.2-1.78l5.79,3.08a.56.56,0,0,0,.53-1l-5.56-3A3.43,3.43,0,0,0,59,65.47c1.59,1.27,4.9,3.9,5.57,4.28a.56.56,0,0,0,.56-1c-.49-.28-3.13-2.35-5.25-4a3.17,3.17,0,0,0,1.83-1.65,11,11,0,0,1,3.75,3.07A12.52,12.52,0,0,0,69.5,69.5C71.8,70.56,73,73.41,73.58,75a1.17,1.17,0,0,1-.68,1.44c-3.26,1.34-6.6,1-8.81.8C63.44,77.19,62.88,77.13,62.44,77.13Z" transform="translate(-5 -16.06)"/><path d="M76.74,66.3a.56.56,0,0,0-.07.22,2.33,2.33,0,0,0,.55,1.64,3.31,3.31,0,0,0,2.41,1c1.25.09,2.36.13,3.35.13,3.07,0,4.93-.43,5.76-1.33a1.77,1.77,0,0,0,.47-1.51,7.13,7.13,0,0,1,.45-2.78c.59-2.05,1.33-4.61-.52-7.59-.61-1-1.2-1.87-1.77-2.73-1.82-2.74-3.26-4.91-3.32-7.46a.56.56,0,0,0-.91-.43,2.36,2.36,0,0,1-2.79,0,.55.55,0,0,0-.15-.07h0a.56.56,0,0,0-.21,0h0l-.13,0,0,0a.55.55,0,0,0-.15.11l0,0a.55.55,0,0,0-.11.22h0c-.14.58-.73,2.33-1.54,2.79a.65.65,0,0,1-.56.06.56.56,0,0,0-.73.48c0,.24-.53,5.86,2.22,9.73A24.29,24.29,0,0,1,76.74,66.3Zm1-16.49a1.83,1.83,0,0,0,.75-.23,3.68,3.68,0,0,0,1.31-1.5,27,27,0,0,0,1.67,5.53.56.56,0,1,0,1-.46,27.58,27.58,0,0,1-1.77-6.23A3.46,3.46,0,0,0,83,46.85c.32,2.48,1.72,4.58,3.44,7.17.56.85,1.15,1.73,1.75,2.7,1.58,2.56,1,4.66.39,6.69a8,8,0,0,0-.49,3.25.65.65,0,0,1-.18.58c-.46.5-2.15,1.27-8.21.84-1.7-.12-1.9-1-1.92-1.35A26.07,26.07,0,0,0,80,58.78a.56.56,0,0,0-.11-.4C77.78,55.52,77.7,51.32,77.75,49.81Z" transform="translate(-5 -16.06)"/><path d="M94,66.26a.56.56,0,0,0-.92.64s1.29,1.89.63,3.51c-.47,1.16-1.83,2-4,2.42-5,1-5.65,2.77-5.92,5a3.39,3.39,0,0,1-.68,2c-1.6,1.8-9.1,4.88-17.32,1.47a.56.56,0,1,0-.43,1,21.23,21.23,0,0,0,8.14,1.62c5,0,9-1.74,10.45-3.38a4.42,4.42,0,0,0,1-2.63c.19-1.58.37-3.06,5-4,2.61-.52,4.25-1.56,4.87-3.1C95.61,68.64,94,66.36,94,66.26Z" transform="translate(-5 -16.06)"/><path d="M28.14,70.62a33.34,33.34,0,0,1-5.43-2.53,31.59,31.59,0,0,0-3.91-1.9.56.56,0,0,0-.36,1.06,31.14,31.14,0,0,1,3.75,1.82,34,34,0,0,0,5.65,2.62l.16,0a.56.56,0,0,0,.16-1.1Z" transform="translate(-5 -16.06)"/><path d="M14.61,64.19c-4.52-2.1-7.55-4.83-8.31-7.49a3.78,3.78,0,0,1,.41-3.2A7.66,7.66,0,0,1,9.88,51a.56.56,0,1,0-.49-1,8.73,8.73,0,0,0-3.62,2.86A4.87,4.87,0,0,0,5.22,57c.86,3,4,5.93,8.91,8.2a.56.56,0,0,0,.47-1Z" transform="translate(-5 -16.06)"/><path d="M55.56,61.13s3.38-.33,10.06-1.59a29.6,29.6,0,0,0,5.49-1.47,2.63,2.63,0,0,0,1.46-1.49,2.72,2.72,0,0,0-.07-2.13A14.67,14.67,0,0,0,69,49.57a8.55,8.55,0,0,1-2.14-3.88,20.37,20.37,0,0,0-1.05-2.59c-1.08-3.72-3.21-8.83-5.72-11.12,3-1.2,4.69-2.62,5.17-4.24a3.45,3.45,0,0,0-.62-3.05c-.83-1.13-3.5-1.49-5.26-1-.63-.35-2.9-1.63-7.31-4.41A22.35,22.35,0,0,0,40.7,16.06H40a22.36,22.36,0,0,0-11.34,3.18,69.69,69.69,0,0,1-7.87,4.43,12.5,12.5,0,0,0-4.9,0,2.56,2.56,0,0,0-1.54,2.5c0,1.13.65,3.91,6.34,5.89q0,.5,0,1l-1.46,2.89a54.28,54.28,0,0,0-4.8,17.51A2.67,2.67,0,0,0,15.66,56a40.2,40.2,0,0,0,5.52,2.9c.93,1.73,4.44,3,6.51,3.63a48.68,48.68,0,0,0,13.19,1.89C45,64.38,49,63.72,51.5,62c.3-.21.58-.42.85-.62Zm12.7-10.7a13.55,13.55,0,0,1,3.23,4.5,1.57,1.57,0,0,1,0,1.24,1.52,1.52,0,0,1-.84.86,28.53,28.53,0,0,1-5.28,1.41C58.79,59.68,55.48,60,55.46,60l-1.67.12.32-.31a7.77,7.77,0,0,0,2.3-3.58,12.81,12.81,0,0,0,.47-2l0-.27A5.87,5.87,0,0,1,58.3,51.7a2.45,2.45,0,0,0,.87-3.17c-.59-2-2.95-3.45-3.66-3.84l-.12,0a9.89,9.89,0,0,0-1.81-.76l0,0c.12-.18.25-.34.37-.5l.16-.2.24-.27.2-.22.3-.29a10.08,10.08,0,0,1,4.88-2.15,6.66,6.66,0,0,1,4.54,2.54,14.49,14.49,0,0,1,1.48,3.29A9.5,9.5,0,0,0,68.25,50.43Zm-4.43-9.69A7.6,7.6,0,0,0,60,39.12a9.15,9.15,0,0,0,.24-1.6c-.05-1.45-.1-2.74-.14-3.9A26,26,0,0,1,63.82,40.74ZM63.7,25.36a2.35,2.35,0,0,1,.45,2.07c-.25.85-1.19,2.1-4.17,3.37-.11-3.62-.14-5.38-.14-6.11C61.32,24.39,63.27,24.77,63.7,25.36ZM29.27,20.19a21.18,21.18,0,0,1,10.74-3h.7a21.17,21.17,0,0,1,10.74,3c4.27,2.69,6.51,4,7.28,4.4,0,1,.05,4.23.37,13a16.12,16.12,0,0,1-.28,1.61v.06a12.34,12.34,0,0,0-4.63,2.27l-.39.37-.26.28-.24.27-.18.22c-.14.18-.29.37-.42.58a.56.56,0,0,0-.08.4,8.29,8.29,0,0,0-2.66-.09,10.38,10.38,0,0,0-6.1,2.79c-.45.37-.92.76-1.48,1.16a26.43,26.43,0,0,1-11.62-2.18,19.85,19.85,0,0,0-2-.86c-4.88-1.76-7.28-4.08-7.12-6.88.09-1.6.14-3,.17-4.29a.55.55,0,0,0,0-.28,50.78,50.78,0,0,0-.3-8.42A73.49,73.49,0,0,0,29.27,20.19ZM15.48,26.13a1.47,1.47,0,0,1,.77-1.43,11,11,0,0,1,4.14,0,40.85,40.85,0,0,1,.31,6.09C15.89,29.06,15.48,26.8,15.48,26.13ZM50.86,61.06c-4.55,3.15-15.19,2.65-22.85.35-3.87-1.17-5.58-2.42-5.89-3.2a.56.56,0,0,0-.3-.31A39.07,39.07,0,0,1,16.26,55a1.55,1.55,0,0,1-.73-1.45,53.08,53.08,0,0,1,4.69-17.12l.36-.72q0,.86-.09,1.79c-.18,3.36,2.46,6,7.86,8a18.78,18.78,0,0,1,1.9.81,28.9,28.9,0,0,0,10.29,2.34l-.47.26-.12,0-4,1.81c-1,.42-1.95.87-2.95,1.34l-.62.29a.56.56,0,0,0,.48,1l.62-.29c1-.46,2-.9,2.92-1.33L40.31,50a.56.56,0,0,0,.18-.06,21.56,21.56,0,0,0,4.07-2.77,9.23,9.23,0,0,1,5.53-2.55,7.94,7.94,0,0,1,4.87,1l.12,0a6.35,6.35,0,0,1,3,3.16c.34.87.19,1.51-.45,1.89a.57.57,0,0,0-.13.1,7.09,7.09,0,0,0-1.68,2.81l0,.06-.06.31a11.88,11.88,0,0,1-.44,1.85,6.69,6.69,0,0,1-2,3.12A16.85,16.85,0,0,1,50.86,61.06Z" transform="translate(-5 -16.06)"/><ellipse cx="48.66" cy="29.73" rx="1.94" ry="1.33" transform="translate(11.36 60.66) rotate(-86.92)"/><ellipse cx="31.88" cy="29.73" rx="1.33" ry="1.94" transform="translate(-8.64 -11.6) rotate(-7.57)"/></svg>