<svg xmlns="http://www.w3.org/2000/svg" viewBox="0 0 83.78 100.6375" x="0px" y="0px"><defs><style>.cls-1{fill:none;}</style></defs><title>Asset 1</title><g data-name="Layer 2"><g data-name="Layer 1"><path class="cls-1" d="M35.73,53.93a6.49,6.49,0,1,0,6.49-6.49A6.5,6.5,0,0,0,35.73,53.93Zm10.15,0a3.66,3.66,0,1,1-3.67-3.67A3.67,3.67,0,0,1,45.89,53.93Z"/><circle class="cls-1" cx="42.22" cy="53.93" r="2.66"/><path class="cls-1" d="M32.82,52.67a9.48,9.48,0,0,1,18.79,0c11.71-2.61,19.76-9.93,19.85-18.24a29.74,29.74,0,0,0-58.5,0C13.06,42.74,21.12,50.06,32.82,52.67Z"/><path class="cls-1" d="M51.53,55.76a9.49,9.49,0,0,1-18.62,0c-9.22-1.88-16.5-6.51-20.23-12.42a29.74,29.74,0,0,0,59.07,0C68,49.25,60.75,53.88,51.53,55.76Z"/><path d="M75,39.83A32.75,32.75,0,1,0,42.22,72.58,32.79,32.79,0,0,0,75,39.83ZM42.22,10.08A29.79,29.79,0,0,1,71.47,34.42c-.09,8.31-8.15,15.64-19.85,18.24a9.48,9.48,0,0,0-18.79,0C21.12,50.06,13.06,42.74,13,34.43A29.79,29.79,0,0,1,42.22,10.08Zm6.49,43.85a6.49,6.49,0,1,1-6.49-6.49A6.5,6.5,0,0,1,48.71,53.93ZM42.22,69.58A29.79,29.79,0,0,1,12.68,43.35c3.72,5.91,11,10.53,20.23,12.42a9.49,9.49,0,0,0,18.62,0c9.22-1.88,16.5-6.51,20.23-12.42A29.79,29.79,0,0,1,42.22,69.58Z"/><path d="M22,6.64l-.29-1C13.67,8.13,9,12.81,6.53,20.86l1,.29C9.84,13.45,14.32,9,22,6.64Z"/><path d="M22,1l-.29-1C10.22,3.49,3.52,10.19,0,21.71L1,22C4.37,10.83,10.86,4.34,22,1Z"/><path d="M60.43,73.51l.29,1c8.53-2.59,13.5-7.56,16.12-16.12l-1-.29C73.37,66.26,68.6,71,60.43,73.51Z"/><path d="M82.82,57.17C79.18,69,72.28,76,60.43,79.56l.29,1C72.92,76.81,80,69.69,83.78,57.46Z"/><path d="M38.56,53.93a3.66,3.66,0,1,0,3.66-3.67A3.67,3.67,0,0,0,38.56,53.93Zm6.33,0a2.66,2.66,0,1,1-2.67-2.67A2.67,2.67,0,0,1,44.89,53.93Z"/></g></g></svg>