<svg xmlns="http://www.w3.org/2000/svg" xmlns:xlink="http://www.w3.org/1999/xlink" xml:space="preserve" version="1.1" style="shape-rendering:geometricPrecision;text-rendering:geometricPrecision;image-rendering:optimizeQuality;" viewBox="0 0 766 558.75" x="0px" y="0px" fill-rule="evenodd" clip-rule="evenodd"><defs><style type="text/css">
   
    .fil0 {fill:black;fill-rule:nonzero}
   
  </style></defs><g><path class="fil0" d="M321 286c17,-9 32,-19 48,-29 -1,-9 -2,-28 -1,-44 -41,18 -73,59 -113,81 -56,30 -251,20 -255,-62 -2,-50 94,-78 131,-94 5,-65 23,-65 72,-99 26,-33 96,-8 129,3 53,-21 207,-86 228,7 4,20 -5,54 -19,72 62,-25 155,-67 208,-4 15,17 19,37 16,56 -4,33 -29,63 -53,84 -37,31 -57,40 -89,79 -31,38 -71,87 -108,99 -40,14 -111,15 -174,3 -33,-6 -142,-37 -130,-90 8,-32 81,-48 110,-62zm54 -98c17,-20 46,-35 66,-52 3,-3 7,-6 11,-9 21,-14 50,-7 72,-1 13,-2 36,-51 27,-80 -6,34 -73,41 -97,62 -56,-18 -200,-9 -228,-21 -26,-11 -25,-29 -14,-47 -43,38 -73,33 -73,104 -6,2 6,13 3,19 -16,22 -24,73 -26,75l33 -8 19 -52c38,-36 149,-20 191,0 -103,60 -120,124 -268,93 -33,-7 -79,-28 -81,-53 -2,4 -3,9 -2,13 3,76 192,84 244,57 43,-29 78,-70 116,-82 0,-8 3,-13 7,-18zm70 -45c-14,12 -60,43 -67,54 -5,8 -2,53 -1,63 -16,11 -51,85 -36,91 0,0 29,-8 31,-14 3,-6 32,-56 32,-56 51,-18 133,-33 183,-14 16,6 29,13 38,19 -24,26 -61,75 -84,94 -49,38 -115,36 -174,31 -73,-7 -141,-37 -147,-66 -21,47 91,79 122,85 63,13 131,12 171,-2 34,-12 74,-60 104,-97 32,-40 53,-48 90,-80 23,-19 46,-48 51,-79 2,-12 0,-24 -5,-35 3,41 -48,49 -63,76 -63,-31 -216,-11 -238,-31 -12,-10 -12,-26 -7,-39z"/></g></svg>