<svg xmlns="http://www.w3.org/2000/svg" xmlns:xlink="http://www.w3.org/1999/xlink" version="1.1" x="0px" y="0px" viewBox="0 0 100 113.595" enable-background="new 0 0 100 90.876" xml:space="preserve"><path d="M99.94,60.232c0,0-11.298-29.09-11.596-29.754c0.68-1.681-0.575-7.54-1.004-8.023l-0.213-3.661  c-0.017-0.296-0.608-0.502-1.32-0.461c-0.63,0.037-1.042,0-1.042,0c-0.038-0.294-0.898-0.585-1.605-0.495  c-0.707,0.09-1.25,0.402-1.212,0.696l0.074,1.391l-3.273-7.973c-0.245-0.67-0.986-1.014-1.656-0.769s-1.014,0.986-0.769,1.656  l2.715,8.183l-4.69-6.263c-0.406-0.586-1.21-0.733-1.796-0.328s-0.733,1.21-0.328,1.796l5.339,8.19  c-0.107,0.316-0.128,0.94-0.342,1.15c-0.611,0.599-1.261,1.304-0.968,2.431c0.293,1.127,1.202,1.866,2.03,1.651l0.295-0.077  c1.539,1.67,2.783,3.446,4.536,3.866l3.406,19.264l-15.058-4.956c-2.189-3.18-5.446-5.614-9.433-6.661  c-3.386-0.888-6.808-0.65-9.887,0.479c-0.204,0.053-30.097,16.803-30.097,16.803L10.092,34.26c0.283-0.762,0.474-1.751,0.542-3.024  c0.079-0.01,0.157-0.02,0.234-0.027c2.135-0.189,3.669-0.721,3.669-3.217V8.453c0-2.779-1.965-5.96-4.389-7.105  C9.082,0.846,8.181,1.134,7.36,1.207C5.225,1.396,3.692,1.928,3.692,4.424v10.275c-2.092,0.806-2.048,2.423-3.357,7.765  c-1.394,5.691,1.842,11.326,4.57,12.934c0.109,1.13,8.687,33.193,9.185,34.059c1.577,2.744,4.538,4.002,6.614,2.809l18.056-8.598  c-1.996,7.711-4.765,18.428-7.01,27.208h34.609l7.476-28.519l19.188,4.552c1.054,0.349,2.188,0.139,3.201-0.481  C98.854,65.356,100.322,61.978,99.94,60.232z"/><path d="M55.599,35.21c7.193,3.074,15.247,1.181,20.381-4.124c-0.808-0.571-1.44-1.472-1.725-2.568  c-0.405-1.557-0.024-3.07,0.89-4.031l-4.638-7.115c-0.495-0.732-0.681-1.612-0.522-2.483c0.161-0.882,0.656-1.649,1.393-2.159  c0.564-0.39,1.224-0.596,1.908-0.596c0.306,0,0.607,0.042,0.895,0.121c0.018-0.436,0.122-0.869,0.312-1.278  c0.378-0.813,1.05-1.43,1.892-1.738c0.371-0.136,0.759-0.204,1.152-0.204l0,0c0.202,0,0.399,0.023,0.593,0.059  c0.014,0.003,0.028,0.007,0.042,0.01c0.187,0.036,0.368,0.09,0.545,0.157l0,0c-1.912-3.356-4.877-6.148-8.702-7.782  C60.702-2.5,49.921,1.824,45.94,11.138C41.96,20.451,46.286,31.23,55.599,35.21z"/></svg>