<svg xmlns="http://www.w3.org/2000/svg" xmlns:xlink="http://www.w3.org/1999/xlink" version="1.1" x="0px" y="0px" viewBox="0 0 100 125" enable-background="new 0 0 100 100" xml:space="preserve"><path d="M66.402,37.702l-0.117,0.117c-0.19,0.19-0.375,0.403-0.537,0.594L12.417,96.361l-0.586,0.644  c-3.283,3.282-7.92,3.979-10.368,1.532c-2.447-2.447-1.751-7.086,1.532-10.368l0.644-0.587l57.948-53.331  c0.189-0.161,0.402-0.344,0.593-0.535l0.117-0.117c1.599-1.656,2.301-3.751,2.03-5.503c-0.022-0.227-0.088-0.454-0.154-0.667  c-0.044-0.191-0.081-0.388-0.104-0.586c-0.965-5.803,1.768-13.196,7.614-19.042c5.802-5.803,13.13-8.528,18.901-7.635L87.034,3.72  c-0.615,0.616-0.651,1.591-0.08,2.161c0.564,0.565,1.518,0.507,2.133-0.109l4.988-4.521c0.492,0.213,0.968,0.513,1.406,0.806  l-4.314,4.726c-0.631,0.63-0.659,1.583-0.095,2.146c0.563,0.564,1.516,0.536,2.147-0.095l4.723-4.316  c0.294,0.439,0.596,0.916,0.808,1.407l-4.521,4.989c-0.615,0.615-0.674,1.568-0.109,2.132c0.57,0.571,1.544,0.535,2.161-0.081  l3.552-3.553c0.813,5.253-1.368,11.789-6.146,17.298c-0.47,0.542-0.967,1.084-1.487,1.604c-6.045,6.045-13.745,8.763-19.629,7.511  c-0.212-0.066-0.438-0.133-0.665-0.154C70.152,35.401,68.058,36.104,66.402,37.702z"/></svg>