<?xml version="1.0" encoding="utf-8"?>
<!-- Generator: Adobe Illustrator 17.0.0, SVG Export Plug-In . SVG Version: 6.00 Build 0)  -->
<!DOCTYPE svg PUBLIC "-//W3C//DTD SVG 1.1//EN" "http://www.w3.org/Graphics/SVG/1.1/DTD/svg11.dtd">
<svg version="1.1" id="Layer_1" xmlns="http://www.w3.org/2000/svg" xmlns:xlink="http://www.w3.org/1999/xlink" x="0px" y="0px"
	 width="1539.154px" height="1287.129px" viewBox="0 0 1539.154 1287.129" enable-background="new 0 0 1539.154 1287.129"
	 xml:space="preserve">
<path fill="#231F20" d="M1072.049,427.864c0,0-56.162-208.448-84.18-242.946s-154.96-91.722-271.723-91.722
	c-78.781,0-153.055,75.223-181.414,127.72c-28.36,52.497-49.635,109.371-49.635,212.989c0,0,67.741-46.498,185.001-59.997
	C787.358,360.409,995.257,453.321,1072.049,427.864z"/>
<path fill="#FFFFFF" stroke="#231F20" stroke-width="4" stroke-miterlimit="10" d="M958.198,370.972c0,0,49.419,12.415,51.564,19.83
	c12.57,43.462,51.269,183.923,48.384,268.492c-3.377,98.998-108,283.976-122,309.976s-219.701,134-242.851,134
	c-23.149,0-147.86-123.644-147.86-123.644s-55.333-225.073-68.667-358.87s-16.044-217.175,114.667-256.33"/>
<path opacity="0.4" fill="#565759" d="M889.481,913.094c0,0,29.974-24.486,78.665-93.635s50.82-208.576,30.82-266.22
	c-20-57.644-58-95.51-58-95.51s-379.59,1.68-408,27.866c-28.41,26.186-35.377,109.689-35.377,109.689
	s-36.067-113.689,70.655-159.689s330.722-46,348.722-46s135.118,115.927,135.118,115.927l-9.118,255.093l-139.945,152.48"/>
<path opacity="0.5" fill="#5D5D5D" d="M646.435,592.292c0,0,26,7.333,30,19c4,11.667,10,67.667,10,67.667
	s-1.667-45.51-44.333-44.922c-42.667,0.588-35.333-9.078-35.333-9.078s31.333-15.073,56.333-4.203
	C663.102,620.756,662.435,599.959,646.435,592.292z"/>
<path opacity="0.5" fill="#5D5D5D" d="M804.553,578.588c0,0-39.722,18.924-41.031,31.188c-1.309,12.264,5.277,68.198,5.277,68.198
	s7.518-50.744,49.25-59.646s32.435-16.698,32.435-16.698s-33.898-7.738-55.86,8.412
	C794.624,610.042,790.655,589.616,804.553,578.588z"/>
<path fill="#2D2C2E" d="M1113.735,626.625c0,0,25.034,51.594,55.034,60.63c0,0-16,2.036-34-15.964c0,0,11,19,34,25s75,64,75,135
	c-0.283-8.984-4-39.184-20-54.092c0,0,45,118.092-10,189.092c0,0,23-38,17-75c0.63,4.935-12.034,85-52.017,100
	c-8.983,5-15.983,21-15.983,21s-6-17,11-36c0,0-24,13-19,28c0,0-68.136-24-70.068-66c0.756,6.068-0.725,32,15.672,44
	c0,0-34.044-20-28.324-58c0,0-13.015,19.125-0.648,31c0,0-25.642-11.539-22.137-83.27c3.505-71.73,9.505-212.729,9.505-212.729
	L1113.735,626.625z"/>
<path fill="#FFFFFF" stroke="#231F20" stroke-width="4" stroke-miterlimit="10" d="M1072.049,552.292c0,0,57.143-14.24,52.431,33.38
	c-4.711,47.62-21.444,56.547-26.078,101.584s-24.634,105.036-43.634,71.036S1072.049,552.292,1072.049,552.292z"/>
<path fill="#2D2C2E" d="M530.769,1042.292c0,0-14.667-20,0-41.333c0,0-4.667,12,6,20.667c-3.391-3.474-6-35.333,21.333-48.667
	c27.333-13.333-30.667-86.667-30.667-95.333s-31.333-145.333-31.333-145.333h-4c0,0-36,41.333-69.333,24
	c0,0,17.333,16,32.667,11.333c0,0-31.333,10-32.667,36.667c0,0,3.333-9.333,17.333-15.333c0,0-13.333,13.333-10,41.333
	c3.333,28-0.667,63.333-25.333,72.667c0,0,22.667-6,30-26c0,0-2.667,29.333-30,44c4.92-2.965,28-5.223,32.667-23.612
	c0,0-40.667,44.945-18,83.612c0,0-6-14.667,12-26.667c0,0-18,58.667,28,77.333c0,0-12-10.667-6.667-24
	c0,0,15.333,36.667,53.333,43.333c0,0-14.667-10.667,2-40c-2.105,3.93-5.333,37.333,21.333,52c0,0-20-23.333-12-54.667
	C517.435,1008.292,512.102,1027.625,530.769,1042.292z"/>
<path fill="#231F20" d="M762.769,970.959c0,0-19.333-5.333-33.333,0l10-6.667c0,0-32.667,14.667-65.333,6.667l14-2.139
	c0,0-32,6.139-43.333-17.194c0,0,1.333,2,6,2.667c-6-2.667-13.333-10.667-12.667-34.667c0,0-16,20-44,13.333c0,0,8,1.333,14-4
	c0,0-20.667,12.667-44.667-15.333c0,0,2,2,8,2.667c0,0-10,0-30-38.667c-17.923-34.652-34.24-112.136-38.395-153.763
	c-0.481-4.823-0.8-9.165-0.938-12.903l4.667,14.667c0,0-8.667-86-12-122.667c-3.333-36.667,0.667-116,46.667-142.667l-78,26.667
	c0,0-16.667,23.333-18,46.667c0,0,3.333-6.667,8-10.667c0,0-5.333,18,0.667,32s0,41.333-8.667,44c0,0,12,1.333,13.333-10
	c0,0,2.667,17.333-5.333,21.333c0,0,8-5.333,10-10.667c0,0,6.667,10.667,7.333,72.667c0,0,6-7.333,6-17.333
	c0,0,12.667,39.333,4.667,74.667l4.667-12.806c0,0-8.667,57.473,0.667,86.806c0,0-3.333-11.333,0-15.333c0,0-1.333,14,8.667,26
	s12,55.333,6,73.333c0,0,8-10,8-21.333c0,0-8,40,9.333,80c0,0-5.333-16,0-26.667c0,0,0,39.333,29.333,80.667
	c0,0-2.667-8.667-2.667-20.667c0,0,12.667,58,58.667,94c0,0-5.333-6.667-8.667-19.333c0,0,16,31.333,50.667,56
	c0,0-6-4.667-10.667-18.667c0,0,23.333,33.333,46,46l-8.667-13.333c0,0,24.667,24,42,26.667s20.667,15.333,20.667,15.333
	s-15.333-6.667,30-24c45.333-17.333,79.333-28.667,94-47.333c0,0-14.667,18.667-39.333,30c0,0,51.333-19.333,72-48
	c-2.731,3.519-5.333,18-5.333,18s9.333-12,43.333-39.333c34-27.333,102-97.333,116-141.333c0,0-4,16-8.667,29.333
	c0,0,29.227-28.667,34.613-92l3.387,16.667c0,0,12.667-58.667,0-92.667s-12.667-42-12.667-63.333c0,0,2.56,21.333,9.28,28.667
	c0,0-7.947-32-5.947-60.667c0,0,1.227,8.667,5.947,16c0,0-3.947-42-3.947-68.667c0,0,1.926,5.333,12.963,14
	c-2.753-2.249-9.016-7.333-9.016-36.667c0-29.333,12.72-54,20.053-59.333c0,0-3.333,15.333,0,22.667c2-6,22.667-18.667,32,2
	c0,0,6.667-30-36-60c-42.667-30-121.333-80-126-81.333c-4.667-1.333-38.667-4.667-38.667-4.667s62,37.333,71.333,59.333
	l-9.333-7.223c0,0,11.333,8.557,19.333,33.89l-6-2c0,0,16.667,22.667,19.333,64l2-12c0,0,14.667,58,9.333,118
	c-4.602,51.777-20.623,96.603-38.637,128.482c-2.861,5.063-5.772,9.799-8.696,14.185l2-14c0,0-9.333,29.333-39.333,54l8.667-2
	c-8.891,2.052-21.178,16.085-27.875,21.78c-7.523,6.397-14.955,13.027-21.616,20.332c-5.026,5.512-10.451,17.241-17.283,19.699
	c-3.744-4.212-3.37-10.7-4.269-16.179c1.107,6.772-6.69,12.366-9.859,17.549c-5.539,9.06-12.487,36.77-26.764,35.602
	c0.533-2.932,3.207-5.182,2.078-8.014c-3.404,2.816-5.458,6.194-8.853,8.863C817.977,975.118,787.965,977.913,762.769,970.959z"/>
<path fill="#231F20" d="M732.769,803.625c0,0-2,2-18.667,0c-14.656-1.759-29.312-1.3-43.062,11.829
	c-1.886,1.801-4.755,3.747-6.605,5.838l9.667-3.333c0,0-14,8.333-28.667,19.667c-15.362,11.87-30.547,30.312-18.667,62.667
	c0,0-4-15.333,0-23.333c-1.374,4.443,2,22.667,12,39.333c0,0-3.333-24.667,14.667-40.667s21.333-24,60-30c0,0-4.643,5.969-4.667,6
	c2.246-2.887,9.46-5.019,12.752-6.278c9.923-3.794,23.26-3.699,33.801-2.938c2.39,0.173,9.906,0.16,11.719,1.172
	c-2.138-1.193-4.265-3.084-7.18-2.789c8.304-0.838,16.538,1.385,24.888,0.595c17.639-1.667,35.112-3.229,52.855-3.121
	c6.769,0.041,14.065,0.28,20.48,2.693c2.235,0.841,11.003,5.056,10.018,8.667c0,0,2-6.667-8.667-13.333c0,0,22,10,20.667,56
	c0,0,15-35.333,6.333-64.667l-1.333,8.667c0,0,5-16.667-30.333-28.667c-14.714-4.997-29.887-7.858-45.366-9.025
	c-15.346-1.158-31.643-2.102-47.027-0.341c1.603-2.975,4.938-3.881,8.273-3.964C755.68,794.278,745.775,796.813,732.769,803.625z"/>
<path fill="#5D5D5D" d="M854.269,845.792c-0.256,0-0.521,0.018-0.791,0.044C853.766,845.838,854.036,845.828,854.269,845.792z"/>
<path opacity="0.5" fill="#5D5D5D" d="M828.769,851.292c-21.605,2.118-51.103,5.001-60.743,10.001c-9.64,5-34.257,9.499-47.757,6.09
	c-14.567-3.678-38.107,7.893-55.98,6.758c4.498,2.105,12.774,6.377,15.98,10.651c4.5,6,31,21.5,82.5,8.5s61.512-26.061,75.5-40
	c0,0,9.163-6.869,15.209-7.456c-0.431-0.003-0.922-0.047-1.478-0.134C847.715,847.838,840.566,850.136,828.769,851.292z"/>
<path opacity="0.5" fill="#272929" d="M720.269,867.383c13.5,3.409,38.117-1.09,47.757-6.09c9.64-5,39.138-7.883,60.743-10.001
	c11.797-1.157,18.947-3.454,23.231-5.59c-3.685-0.581-10.146-3.026-19.731-7.415c-12-5.495-69,2.005-89,11.505c0,0-7.593,2.753-17,0
	s-22,3-39,10s-14,13-26,13c0,0,1.203,0.499,3.02,1.349C682.162,875.276,705.702,863.705,720.269,867.383z"/>
<g>
	<path fill="#494A4A" d="M707.148,778.725c0,0-3.603-1.838-10.343-1.478C690.064,777.606,692.782,791.034,707.148,778.725z"/>
	<path fill="#494A4A" d="M751.012,774.056c0,0,3.159-2.525,9.834-3.531S767.561,783.221,751.012,774.056z"/>
</g>
<path opacity="0.5" fill="#5D5D5D" d="M731.086,797.073c9.774-0.97,15.644-12.686,25.203-14.201
	c9.428-1.494,21.314,4.246,27.95-5.349c5.333-7.712,1.707-18.29-0.973-26.251c1.78,6.503,2.774,14.187-0.913,20.279
	c-2.718,4.491-9.085,7.602-14.305,6.993c-5.043-0.589-8.267-5.484-13.345-5.872c-5.905-0.452-9.111,5.558-13.242,8.668
	c-8.656,6.517-21.615,5.862-30.156-0.52c-2.614-1.953-4.459-3.738-8.055-2.707c-4.894,1.404-7.067,6.846-11.888,8.438
	c-4.99,1.648-11.853-0.118-15.42-3.969c-4.838-5.225-5.412-12.952-4.977-19.68c-1.022,8.338-2.444,19.43,4.332,25.91
	c8.431,8.062,18.918,0.046,28.454-0.388C713.421,787.983,721.318,798.091,731.086,797.073"/>
<path opacity="0.5" fill="#5D5D5D" d="M778.769,744.792c0,0-6.463-9.5-13.731-5.5v-28l3.731,20
	C768.769,731.292,776.269,731.792,778.769,744.792z"/>
<path fill="#231F20" d="M657.571,588.172c0,0,1.7-14.119-16.027-17.617c-17.727-3.498-47.237-2.82-63.397,3.609
	c-16.161,6.429-29.415,28.718-29.415,28.718s19.842-12.147,38.255-14.197C605.4,586.635,657.571,588.172,657.571,588.172z"/>
<path fill="#001400" d="M661.769,634.292c0,0-22.47-14.324-37.97-16.324s-30.53-0.676-42.53,7.574
	c-11.979,8.235-15.831,19.211-15.845,19.249c1.287-3.674,15.14,2.766,17.53,3.486c17.991,5.417,37.674,1.949,54.708-5.113
	c5.264-2.183,10.423-4.626,15.607-6.991C654.838,635.457,660.04,632.49,661.769,634.292z"/>
<path fill="#FFFFFF" stroke="#231F20" stroke-miterlimit="10" d="M654.269,635.249c0,0-16.307-15.338-40.673-14.457
	c-24.366,0.88-33.827,11-40.827,19.5c0,0,15.702,11.65,35.5,10.75C630.269,650.042,641.269,636.707,654.269,635.249z"/>
<path fill="#414042" d="M630.769,634.625c0-6.182-3.181-10.614-7.989-13.771c-1.685-0.096-3.41-0.126-5.183-0.062
	c-6.859,0.248-12.536,0.228-17.31,1.698c-2.999,3.166-4.85,7.43-4.85,12.136c0,6.396,3.411,12.982,8.501,16.082
	c2.668,0.325,5.455,0.465,8.332,0.335c4.523-0.206,8.576-1.938,12.282-2.976C628.351,644.826,630.769,640.011,630.769,634.625z"/>
<g>
	<polygon fill="#FFFFFF" points="605.102,625.625 603.102,628.959 610.289,633.037 	"/>
	<polygon fill="#FFFFFF" points="608.769,634.924 601.102,634.625 601.102,638.959 	"/>
</g>
<path opacity="0.5" fill="#5D5D5D" d="M663.102,620.756c0,0-33-16.463-64-9.13C599.102,611.625,638.769,594.552,663.102,620.756z"/>
<path opacity="0.5" fill="#5D5D5D" d="M654.269,665.625c0,0-44.167,37.333-81.5,5.333
	C572.769,670.959,603.769,710.959,654.269,665.625z"/>
<path fill="#231F20" d="M785.502,575.313c0,0-3.977-13.658,14.062-20.169c18.038-6.511,49.076-10.925,67.015-7.357
	s35.297,23.307,35.297,23.307s-22.686-8.584-42.306-7.436C839.95,564.805,785.502,575.313,785.502,575.313z"/>
<path fill="#001400" d="M798.93,622.944c0,0,18.728-18.956,33.397-24.349c14.669-5.392,29.617-7.439,43.15-2.06
	c13.508,5.369,24.702,15.215,24.724,15.249c-2.071-3.297-19.147,6.059-21.318,7.292c-16.339,9.277-36.301,10.267-54.477,7.164
	c-5.618-0.959-11.19-2.196-16.77-3.35C805.947,622.541,800.216,620.803,798.93,622.944z"/>
<path fill="#FFFFFF" stroke="#231F20" stroke-miterlimit="10" d="M806.456,622.212c0,0,12.493-18.576,36.446-23.129
	c23.953-4.553,40.426,3.213,49.138,9.946c0,0-17.722,14.846-37.226,18.365C833.141,631.305,819.455,620.746,806.456,622.212z"/>
<path fill="#414042" d="M867.803,608.624c-1.053-4.622-3.836-8.392-7.503-10.811c-5.276-0.27-11.074,0.067-17.398,1.269
	c-1.743,0.331-3.418,0.744-5.04,1.212c-3.987,4.146-5.882,10.149-4.509,16.176c1.196,5.251,4.622,9.409,9.048,11.724
	c3.844,0.189,7.958,0.003,12.414-0.801c2.682-0.484,5.327-1.187,7.9-2.032C867.091,621.21,869.24,614.934,867.803,608.624z"/>
<g>
	<polygon fill="#FFFFFF" points="843.616,603.052 840.926,605.858 847.028,611.43 	"/>
	<polygon fill="#FFFFFF" points="845.127,612.932 837.718,610.939 836.755,615.164 	"/>
</g>
<path opacity="0.5" fill="#5D5D5D" d="M794.624,610.042c0,0,28.52-23.381,60.374-23.115
	C854.998,586.926,812.53,579.089,794.624,610.042z"/>
<path opacity="0.5" fill="#5D5D5D" d="M813.201,651.829c0,0,51.355,26.592,80.649-12.899
	C893.851,638.93,872.508,684.816,813.201,651.829z"/>
<path opacity="0.5" fill="#5D5D5D" d="M1087.01,586.041c0,0,6.048-14.537,21.759-7.453c15.711,7.084-10.88,51.743-10.88,51.743
	S1123.251,574.789,1087.01,586.041z"/>
<path opacity="0.5" fill="#5D5D5D" d="M1081.065,641.625v45.63C1081.065,687.256,1089.245,661.973,1081.065,641.625z"/>
<path fill="#000200" d="M340.441,509.712c0,0,53.726,83.405,136.328,111.044l19.604-155.351
	C496.373,465.404,410.998,501.522,340.441,509.712z"/>
<path fill="#000200" d="M926.832,434.192c0,0,33.126-12.429,126.067,52.139c53.451,39.641,61.272,49.569,71.857,84.067
	c0,0,90.939-81.263,56.012-124.627s-123.423,3.037-202.919-31.413s-190.867-20.951-190.867-20.951L926.832,434.192z"/>
<path fill="#000200" d="M785.351,106.39c49.48,20.96,153.094,58.11,172.999,81.528c25.499,29.998,90.914,226.441,90.914,226.441
	l22.785,13.505c0,0-56.162-208.448-84.18-242.946C966.321,158.388,869.845,126.023,785.351,106.39z"/>
<path fill="#292626" d="M485.096,433.906c0,0-35.221,64.497-138.716,64.497c-16.499,1.5-14.999,23.999,41.998,10.499
	c56.997-13.499,193.49-59.997,352.482-68.997c158.992-9,276.895-4.5,331.188-6c54.293-1.5,115.79-0.503,112.79,42.496
	c-0.053-6.344,30.272-62.534-135.575-52.11c-80.414-11.385-109.314-122.38-274.855-107.381
	c-165.541,14.999-225.677,47.998-225.677,47.998L485.096,433.906z"/>
<path fill="#000200" d="M1072.049,427.864c0,0-47.702-47.956-137.698-92.954s-193.497-59.997-287.989-47.998
	S486.664,390.421,486.664,390.421l-1.568,43.485c0,0,81.13-69.964,243.444-69.48C890.853,364.909,980.258,448.822,1072.049,427.864z
	"/>
<path fill="#231F20" d="M755.822,906.603c0,0-17.01,5.333-37.01,0c0,0,2.788,4,9.727,5.333c0,0-7.061-3.289-5.061,4.356
	c-0.316-2.97,8-1.022,10.667,3.644s-7.333,18.667-15.333,20c0,0,15.01-1.333,18.505-8.667c0,0,0.83,28.067-39.838,42.034
	c0,0,21.731,8.633,53.532,6.633s60.468-4,60.468-4s-26.088-8-32.711-22.667c0,0,4.711,4,11.377,4.667
	c-2.667-4-19.819-7.333-18.243-28.667l6.866,8c0,0-12.711-16.667,0-23.333s18.044-20,18.044-20S773.499,908.603,755.822,906.603z"/>
<circle fill="#001400" cx="613.102" cy="634.625" r="6.311"/>
<circle fill="#001400" cx="851.367" cy="613.052" r="6.311"/>
<path opacity="0.5" fill="#5D5D5D" d="M898.146,845.702c0,0,3.333-32.432-18-42.432C880.146,803.27,907.479,806.801,898.146,845.702
	z"/>
<path opacity="0.5" fill="#5D5D5D" d="M618.197,890.582c0,0-10.21-30.963,8.483-45.305
	C626.68,845.277,600.74,854.587,618.197,890.582z"/>
<path fill="#565759" d="M530.146,358.426c0,0,105.754-110.844,392.877,0C923.023,358.426,691.758,219.486,530.146,358.426z"/>
<path fill="#565759" d="M516.341,329.656c25.718-57.586,53.481-142.776,101.775-185.594c32.223-28.569,85.342-56.19,193.39-21.432
	c-28.964-9.317-70.436-4.412-99.964-1.511c-23.978,2.356-51.523,8.463-72.32,21.324c-29.695,18.363-43.327,51.002-60.426,79.83
	c-21.107,35.586-45.305,69.485-62.424,107.306C515.961,330.498,515.95,330.523,516.341,329.656z"/>
<path fill="#FFFFFF" d="M1021.668,364.425c0,0-48.936-169.526-72.095-184.37c-23.158-14.844-193.559-78.365-286.471-48.762
	S530.146,327.55,530.146,327.55S730.682,225.971,1021.668,364.425z"/>
<path fill="#FFFFFF" d="M969.433,427.864c0,0-184.429-17.663-299.336-3.572S438.197,490.88,438.197,490.88
	s36.856-22.453,58.176-56.974C496.373,433.906,690.71,300.352,969.433,427.864z"/>
<path fill="#FFFFFF" d="M1100.372,450.382c0,0,79.028,4.23,45.979,73.496C1146.351,523.878,1214.311,453.383,1100.372,450.382z"/>
<path fill="#FFFFFF" d="M463.435,599.625c0,0-56.737-20.25-86.735-75.747c0,0,48.982,3.019,86.735-20.999
	c0,0-17.739,28.499-67.236,29.998C396.199,532.878,412.178,568.878,463.435,599.625z"/>
</svg>
