<svg xmlns="http://www.w3.org/2000/svg" xmlns:xlink="http://www.w3.org/1999/xlink" version="1.1" x="0px" y="0px" viewBox="0 0 100 125" style="enable-background:new 0 0 100 100;" xml:space="preserve"><g><path d="M31.695,25.844v-9.17H11.476V9.17h20.219V0l12.921,12.922L31.695,25.844z M85.385,51.776   c-2.758-1.665-6.082-1.218-7.454,0.99c-0.001-0.002,1.433-2.375,1.433-2.375c1.355-2.246,0.204-5.426-2.571-7.102   c-2.776-1.676-6.126-1.213-7.482,1.033l0.696-1.155c1.357-2.246,0.206-5.426-2.57-7.102c-2.775-1.675-6.125-1.213-7.481,1.034   l-2.271,3.76L72.325,9.472c1.239-2.715-0.169-7.131-3.874-8.824c-3.705-1.692-7.644,0.163-8.883,2.876L36.002,54.045l4.941-17.048   c-4.798-1.54-9.937,1.102-11.476,5.9c0,0-4.106,12.069-4.744,17.908c-0.265,8.099,8.964,13.014,7.193,17.477   c-1.771,4.463-3.137,7.906-3.137,7.906L58.391,100c0,0,2.635-5.686,4.434-9.542c1.798-3.855,12.651-4.759,17.202-16.293   c0.567-1.436,7.929-15.286,7.929-15.286C89.311,56.631,88.16,53.452,85.385,51.776z"/></g></svg>