<svg xmlns="http://www.w3.org/2000/svg" xmlns:xlink="http://www.w3.org/1999/xlink" version="1.1" x="0px" y="0px" viewBox="0 0 100 125" enable-background="new 0 0 100 100" xml:space="preserve"><g><polygon fill="none" points="36.542,37.734 32.72,37.734 32.72,43.438 36.542,43.445  "/><rect x="32.72" y="31.173" fill="none" width="3.823" height="5.728"/><polygon fill="none" points="33.053,87.012 33.035,75.623 32.72,75.009 32.72,87.272 45.72,87.308 45.22,86.99  "/><polygon fill="none" points="33.053,72.264 33.035,60.875 32.72,60.261 32.72,72.524 45.72,72.56 45.22,72.242  "/><polygon fill="none" points="40.813,37.734 37.355,37.734 37.355,43.446 40.813,43.453  "/><path fill="none" d="M30.366,90h18.146V28.333H30.366V90z M30.782,74.752v-1.997V60.208v-2.202v-12.34v-2.203V28.919H47.97v14.543   v2.203v12.34v2.202v12.547v1.997V89.5H30.782V74.752z"/><polygon fill="none" points="45.703,58.006 45.22,57.698 33.053,57.72 33.035,46.332 32.72,45.717 32.72,57.98 41.82,58.006  "/><path fill="none" d="M68.133,26.313l-0.059-7.188H30.199l-0.016,7.125L68.133,26.313z M30.658,19.625h36.917v6.208H30.658V19.625z"/><rect x="46.949" y="7.125" fill="none" width="4.084" height="4.667"/><polygon fill="none" points="36.277,55.438 43.199,55.469 43.199,46.734 36.312,46.703  "/><rect x="37.355" y="31.173" fill="none" width="3.458" height="5.728"/><rect x="41.626" y="31.173" fill="none" width="4.076" height="5.728"/><polygon fill="none" points="45.703,37.734 41.626,37.734 41.626,43.455 45.703,43.462  "/><polygon fill="none" points="64.984,58.006 64.502,57.698 52.335,57.72 52.316,46.332 52.002,45.717 52.002,57.98 61.102,58.006     "/><polygon fill="none" points="52.335,87.012 52.316,75.623 52.002,75.009 52.002,87.272 65.002,87.308 64.502,86.99  "/><path fill="none" d="M49.637,90h18.229V28.333H49.637V90z M50.064,74.752v-1.997V60.208v-2.202v-12.34v-2.203V28.919h17.188v14.543   v2.203v12.34v2.202v12.547v1.997V89.5H50.064V74.752z"/><polygon fill="none" points="55.824,37.734 52.002,37.734 52.002,43.438 55.824,43.445  "/><polygon fill="none" points="52.335,72.264 52.316,60.875 52.002,60.261 52.002,72.524 65.002,72.56 64.502,72.242  "/><rect x="60.908" y="31.173" fill="none" width="4.076" height="5.728"/><rect x="52.002" y="31.173" fill="none" width="3.822" height="5.728"/><polygon fill="none" points="60.095,37.734 56.637,37.734 56.637,43.446 60.095,43.453  "/><rect x="56.637" y="31.173" fill="none" width="3.458" height="5.728"/><polygon fill="none" points="64.984,37.734 60.908,37.734 60.908,43.455 64.984,43.462  "/><rect x="30.658" y="19.625" width="36.917" height="6.208"/><path d="M69.949,90.125V25h1.125v-4.625h-1.125v-1.25h-1.875l0.059,7.188L30.184,26.25l0.016-7.125h-2.25v1.25h-1.25V25h1.25   v65.125h-2.625V94h47v-3.875H69.949z M48.512,90H30.366V28.333h18.146V90z M67.865,90H49.637V28.333h18.229V90z"/><path d="M68.074,16.375h-2.5v-2.75h-12.75V11.75h-0.875V7h2l-5-3.5L44.199,7h1.75v4.75h-1v1.875h-12.75v2.75h-2v2.75h37.875V16.375   z M51.033,11.792h-4.084V7.125h4.084V11.792z"/><path d="M67.252,74.752v-1.997V60.208v-2.202v-12.34v-2.203V28.919H50.064v14.543v2.203v12.34v2.202v12.547v1.997V89.5h17.188   V74.752z M60.908,31.173h4.076v5.728h-4.076V31.173z M60.908,37.734h4.076v5.728l-4.076-0.008V37.734z M56.637,31.173h3.458v5.728   h-3.458V31.173z M56.637,37.734h3.458v5.719l-3.458-0.007V37.734z M52.002,31.173h3.822v5.728h-3.822V31.173z M52.002,37.734h3.822   v5.71l-3.822-0.007V37.734z M52.002,45.717l0.314,0.615l0.019,11.388l12.167-0.021l0.482,0.308h-3.883l-9.1-0.025V45.717z    M52.002,87.272V75.009l0.314,0.614l0.019,11.389l12.167-0.021l0.5,0.317L52.002,87.272z M52.002,72.524V60.261l0.314,0.614   l0.019,11.389l12.167-0.021l0.5,0.317L52.002,72.524z"/><path d="M47.97,74.752v-1.997V60.208v-2.202v-12.34v-2.203V28.919H30.782v14.543v2.203v12.34v2.202v12.547v1.997V89.5H47.97V74.752   z M41.626,31.173h4.076v5.728h-4.076V31.173z M41.626,37.734h4.076v5.728l-4.076-0.008V37.734z M43.199,46.734v8.735l-6.922-0.03   l0.035-8.735L43.199,46.734z M37.355,31.173h3.458v5.728h-3.458V31.173z M37.355,37.734h3.458v5.719l-3.458-0.007V37.734z    M32.72,31.173h3.823v5.728H32.72V31.173z M32.72,37.734h3.823v5.71l-3.823-0.007V37.734z M32.72,45.717l0.315,0.615l0.019,11.388   l12.167-0.021l0.482,0.308H41.82l-9.1-0.025V45.717z M32.72,87.272V75.009l0.315,0.614l0.019,11.389L45.22,86.99l0.5,0.317   L32.72,87.272z M32.72,72.524V60.261l0.315,0.614l0.019,11.389l12.167-0.021l0.5,0.317L32.72,72.524z"/></g><text x="0" y="115" fill="#000000" font-size="5px" font-weight="bold" font-family="'Helvetica Neue', Helvetica, Arial-Unicode, Arial, Sans-serif">Created by Arancha R</text><text x="0" y="120" fill="#000000" font-size="5px" font-weight="bold" font-family="'Helvetica Neue', Helvetica, Arial-Unicode, Arial, Sans-serif">from the Noun Project</text></svg>